<mxfile host="app.diagrams.net" modified="2024-05-20T05:48:27.391Z" agent="Mozilla/5.0 (Windows NT 10.0; Win64; x64) AppleWebKit/537.36 (KHTML, like Gecko) Chrome/99.0.4844.51 Safari/537.36" etag="-yniYyIScOx2i-oTmvxq" version="24.4.4" type="github">
  <diagram name="Page-1" id="5348f1db-0dfa-24cf-5d06-2057accb5106">
    <mxGraphModel dx="2100" dy="984" grid="1" gridSize="10" guides="1" tooltips="1" connect="1" arrows="1" fold="1" page="1" pageScale="1.5" pageWidth="1169" pageHeight="1654" background="none" math="0" shadow="0">
      <root>
        <mxCell id="0" style=";html=1;" />
        <mxCell id="1" style=";html=1;" parent="0" />
        <mxCell id="55dd390204d0f602-3" value="" style="whiteSpace=wrap;html=1;rounded=0;shadow=0;dashed=0;strokeColor=#8DBFAE;strokeWidth=4;fillColor=#DAE8FC;fontFamily=Helvetica;fontSize=100;align=center;" parent="1" vertex="1">
          <mxGeometry x="403.52" y="260" width="926.48" height="1640" as="geometry" />
        </mxCell>
        <mxCell id="55dd390204d0f602-1" value="产品架构" style="whiteSpace=wrap;html=1;rounded=0;shadow=0;dashed=0;strokeColor=none;strokeWidth=4;fillColor=#333333;gradientColor=none;fontFamily=Helvetica;fontSize=100;fontColor=#FFFFFF;align=center;" parent="1" vertex="1">
          <mxGeometry x="437" y="20" width="880" height="200" as="geometry" />
        </mxCell>
        <mxCell id="55dd390204d0f602-2" value="" style="ellipse;whiteSpace=wrap;html=1;rounded=0;shadow=0;dashed=0;strokeColor=#6c8ebf;strokeWidth=4;fillColor=#dae8fc;gradientColor=#7ea6e0;fontFamily=Helvetica;fontSize=100;align=center;" parent="1" vertex="1">
          <mxGeometry x="483.52" y="340" width="200" height="200" as="geometry" />
        </mxCell>
        <mxCell id="55dd390204d0f602-6" value="应用层" style="whiteSpace=wrap;html=1;rounded=0;shadow=0;dashed=0;strokeColor=#6c8ebf;strokeWidth=4;fillColor=#dae8fc;gradientColor=#7ea6e0;fontFamily=Helvetica;fontSize=30;align=center;fontStyle=1" parent="1" vertex="1">
          <mxGeometry x="757" y="280" width="240" height="60" as="geometry" />
        </mxCell>
        <mxCell id="55dd390204d0f602-9" value="" style="ellipse;whiteSpace=wrap;html=1;rounded=0;shadow=0;dashed=0;strokeColor=#b85450;strokeWidth=4;fillColor=#f8cecc;gradientColor=#ea6b66;fontFamily=Helvetica;fontSize=100;align=center;" parent="1" vertex="1">
          <mxGeometry x="816.76" y="360" width="203.24" height="200" as="geometry" />
        </mxCell>
        <mxCell id="55dd390204d0f602-10" value="" style="ellipse;whiteSpace=wrap;html=1;rounded=0;shadow=0;dashed=0;strokeColor=none;strokeWidth=4;fillColor=#F49731;gradientColor=none;fontFamily=Helvetica;fontSize=100;fontColor=#FFFFFF;align=center;" parent="1" vertex="1">
          <mxGeometry x="1048.52" y="675" width="170" height="170" as="geometry" />
        </mxCell>
        <mxCell id="55dd390204d0f602-17" value="网络层" style="whiteSpace=wrap;html=1;rounded=0;shadow=0;dashed=0;strokeColor=none;strokeWidth=4;fillColor=#F49731;gradientColor=none;fontFamily=Helvetica;fontSize=30;fontColor=#FFFFFF;align=center;fontStyle=1" parent="1" vertex="1">
          <mxGeometry x="633.52" y="950" width="240" height="60" as="geometry" />
        </mxCell>
        <mxCell id="55dd390204d0f602-19" value="" style="ellipse;whiteSpace=wrap;html=1;rounded=0;shadow=0;dashed=0;strokeColor=#3700CC;strokeWidth=4;fillColor=#6a00ff;fontFamily=Helvetica;fontSize=100;fontColor=#ffffff;align=center;" parent="1" vertex="1">
          <mxGeometry x="510" y="1580" width="200" height="200" as="geometry" />
        </mxCell>
        <mxCell id="55dd390204d0f602-22" value="感知层" style="whiteSpace=wrap;html=1;rounded=0;shadow=0;dashed=0;strokeColor=#2D7600;strokeWidth=4;fillColor=#60a917;fontFamily=Helvetica;fontSize=30;fontColor=#ffffff;align=center;fontStyle=1" parent="1" vertex="1">
          <mxGeometry x="710" y="1470" width="240" height="60" as="geometry" />
        </mxCell>
        <mxCell id="UXWRd_-klPUgLTdepVoT-5" value="" style="endArrow=none;html=1;rounded=1;strokeColor=default;entryX=0.5;entryY=0.742;entryDx=0;entryDy=0;entryPerimeter=0;targetPerimeterSpacing=8;curved=0;jumpStyle=arc;strokeWidth=3;exitX=-0.004;exitY=0.743;exitDx=0;exitDy=0;exitPerimeter=0;" parent="1" edge="1">
          <mxGeometry width="50" height="50" relative="1" as="geometry">
            <mxPoint x="403.52" y="911" as="sourcePoint" />
            <mxPoint x="847.52" y="910" as="targetPoint" />
            <Array as="points">
              <mxPoint x="1287.52" y="910" />
            </Array>
          </mxGeometry>
        </mxCell>
        <mxCell id="XepEtMXgXSmg0DPBAmvP-5" value="" style="shape=image;imageAspect=0;aspect=fixed;verticalLabelPosition=bottom;verticalAlign=top;image=data:image/svg+xml,PHN2ZyB4bWxuczp4bGluaz0iaHR0cDovL3d3dy53My5vcmcvMTk5OS94bGluayIgeG1sbnM9Imh0dHA6Ly93d3cudzMub3JnLzIwMDAvc3ZnIiBoZWlnaHQ9IjIwMCIgd2lkdGg9IjIwMCIgdmVyc2lvbj0iMS4xIiB2aWV3Qm94PSIwIDAgMTAyNCAxMDI0IiBjbGFzcz0iaWNvbiI+PHBhdGggZmlsbD0iI0E2QkFGQiIgZD0iTTE5OC45ODA4NTYgMjk4LjExNzE3OGExMDMuMTA1MTkgMTAzLjEwNTE5IDAgMSAxIDEwMy4xMDUxOS0xMDMuMTA1MTkgMTAzLjIyODIyOCAxMDMuMjI4MjI4IDAgMCAxLTEwMy4xMDUxOSAxMDMuMTA1MTl6IG0xMDAuNDU5ODkgNTI4Ljc2NDc1N2ExMDMuMTA1MTkgMTAzLjEwNTE5IDAgMSAwLTEwMy4xMDUxOTEgMTAzLjEwNTE5IDEwMy4yMjgyMjggMTAzLjIyODIyOCAwIDAgMCAxMDMuMTE3NDk0LTEwMy4xMTc0OTR6IG02MzEuODgyMjUgMi41ODM3ODFhMTAzLjEwNTE5IDEwMy4xMDUxOSAwIDEgMC0xMDMuMTA1MTkgMTAzLjEwNTE5MSAxMDMuMjI4MjI4IDEwMy4yMjgyMjggMCAwIDAgMTAzLjEwNTE5LTEwMy4xMDUxOTF6IG0wLTYzNC41MTUyNDdhMTAzLjEwNTE5IDEwMy4xMDUxOSAwIDEgMC0xMDMuMTA1MTkgMTAzLjEwNTE5MSAxMDMuMjI4MjI4IDEwMy4yMjgyMjggMCAwIDAgMTAzLjEwNTE5LTEwMy4wNTU5NzZ6Ii8+PHBhdGggZmlsbD0iIzdFNTJGMyIgZD0iTTM4MS43NTI2NDYgNzY2LjY0MjkxMmMyMy42NDc3NTQgNjkuODM1OTI2IDUuMzg5MDMgMTQ4LjUwNTkyNC00Ni41MjAzNzMgMjAwLjQxNTMyN2ExOTQuNDg0OTM0IDE5NC40ODQ5MzQgMCAxIDEtNzQuNjQ2NjgxLTMyMS41OTQ2ODVsMy41OTI2ODcgMS4yMzAzNzItMi40NjA3NDUgMi45NDA1OWMtMTIuOTU1ODE5IDE1LjgzNDg5LTI3LjY4MzM3NCAzMi4xNDk2MjYtNDAuMzgwODE1IDQ2LjAwMzYxNmwtMC45NTk2OTEgMS4wNDU4MTctMS40MDI2MjQtMC4yMjE0NjdhMTM1LjgzMzA5MSAxMzUuODMzMDkxIDAgMCAwLTIxLjI3MzEzNS0xLjY3MzMwNyAxMzQuNzg3Mjc0IDEzNC43ODcyNzQgMCAxIDAgOTUuMzE2OTM0IDIzMC4wNzk2MDIgMTM1LjQ4ODU4NyAxMzUuNDg4NTg3IDAgMCAwIDM3LjY4NjMtMTE2LjcxMzEwN2wtMC4yMjE0NjctMS4zOTAzMjEgMS4wMzM1MTMtMC45NTk2OWMxMy42MjAyMi0xMi42OTc0NDEgMjguMjk4NTYxLTI1LjUzMDIyMyA0NS45OTEzMTMtNDAuMzgwODE2bDIuOTY1MTk3LTIuNDYwNzQ0eiBtNDQ0LjUwODg2OC0xMzEuNzk3NDdhMTk0Ljg1NDA0NSAxOTQuODU0MDQ1IDAgMCAwLTYxLjk2MTU0NCAxMC4wNjQ0NDRsLTMuNTkyNjg3IDEuMjMwMzczIDIuMzYyMzE1IDIuOTUyODkzYzExLjA3MzM1IDEzLjg5MDkwMiAyNC4wNTM3NzYgMjkuMDEyMTc2IDM5LjU4MTA3MyA0Ni4yNjE5OTVsMC45NTk2OTEgMS4wNzA0MjMgMS40MTQ5MjgtMC4yMjE0NjdhMTM3LjA4ODA3IDEzNy4wODgwNyAwIDAgMSAyMS4zNTkyNjEtMS42ODU2MSAxMzMuNTgxNTEgMTMzLjU4MTUxIDAgMCAxIDk1LjA4MzE2NCAzOS4zNzE5MTEgMTM0Ljg4NTcwNCAxMzQuODg1NzA0IDAgMSAxLTIyOC40NDMyMDYgNzQuMzI2Nzg0bDAuMjIxNDY3LTEuNDAyNjI0LTEuMDQ1ODE3LTAuOTU5NjljLTE0Ljg2Mjg5Ni0xMy42MjAyMi0zMC4wMDg3NzgtMjYuNTc2MDQtNDYuMjk4OTA2LTM5LjYwNTY4MWwtMi45NTI4OTMtMi4zNjIzMTUtMS4yMzAzNzIgMy41OTI2ODdhMTk0LjM5ODgwNyAxOTQuMzk4ODA3IDAgMSAwIDMyMS44Nzc2NzEtNzUuNDU4NzI3IDE5MS44NjQyNDEgMTkxLjg2NDI0MSAwIDAgMC0xMzcuMzM0MTQ1LTU3LjE3NTM5NnogbS0zMTIuMjQzODU3LTE4Mi4wOTUwODZhNTguNTA0MTk4IDU4LjUwNDE5OCAwIDAgMC00MS42MjM0OTEgMTcuMzExMzM3IDU3Ljc0MTM2NyA1Ny43NDEzNjcgMCAwIDAtMTcuMzExMzM3IDQxLjYyMzQ5MiA1OC41MDQxOTggNTguNTA0MTk4IDAgMCAwIDE3LjMxMTMzNyA0MS42MjM0OTEgNTcuNzQxMzY3IDU3Ljc0MTM2NyAwIDAgMCA0MS42MjM0OTEgMTcuMzExMzM3IDU4Ljc2MjU3NiA1OC43NjI1NzYgMCAwIDAgNDEuNjM1Nzk1LTEwMC4yNzUzMzQgNTcuNzUzNjcxIDU3Ljc1MzY3MSAwIDAgMC00MS42MzU3OTUtMTcuNjA2NjI2eiBtMTI5LjE4OTA4MS0xOTIuMzE5NDc4bDIuOTQwNTktMi4zMTMxYzE0LjAzODU0Ny0xMS4wNzMzNSAyOS4wOTgzMDMtMjQuMDE2ODY1IDQ2LjA1MjgzMS0zOS42MTc5ODVsMS4wNDU4MTctMC45NTk2OS0wLjIyMTQ2Ny0xLjQwMjYyNGExMzUuNDg4NTg3IDEzNS40ODg1ODcgMCAwIDEgMzcuNjg2My0xMTYuNzEzMTA3IDEzNC44ODU3MDQgMTM0Ljg4NTcwNCAwIDEgMSA5NS40MTUzNjQgMjMwLjA3OTYwMSAxMzcuMTM3Mjg1IDEzNy4xMzcyODUgMCAwIDEtMjEuNDA4NDc2LTEuNjQ4Njk5bC0xLjQwMjYyNS0wLjIyMTQ2Ny0wLjk1OTY5IDEuMDQ1ODE3Yy0xNC41NTUzMDMgMTUuODM0ODktMjcuNTg0OTQ1IDMwLjg4MjM0Mi0zOS44NjQwNTkgNDYuMDE1OTJsLTIuNDYwNzQ1IDIuOTY1MTk3IDMuNjE3Mjk1IDEuMjMwMzcyYTE5Ni4wMzUyMDIgMTk2LjAzNTIwMiAwIDAgMCA2Mi4zNzk4NyAxMC4xMDEzNTYgMTkyLjU5MDE2IDE5Mi41OTAxNiAwIDAgMCAxMzcuNTMxMDA1LTU2LjkxNzAxOGM3NS44NDAxNDItNzUuODQwMTQyIDc1Ljg0MDE0Mi0xOTkuMjM0MTcgMC0yNzUuMDc0MzEzYTE5NC4zOTg4MDcgMTk0LjM5ODgwNyAwIDAgMC0zMjEuNjA2OTg5IDE5OS44NzM5NjR6TTE5Ny4zNTY3NjQgMzg5LjE1MjQxN2ExOTMuODgyMDUxIDE5My44ODIwNTEgMCAwIDAgNjMuOTc5MzU1LTEwLjgyNzI3NWwzLjYwNDk5LTEuMjMwMzcyLTIuNDYwNzQ0LTIuOTI4Mjg2Yy0xMy4yMTQxOTctMTUuODEwMjgzLTI4LjEwMTcwMS0zMS45ODk2NzctNDAuOTA5ODc2LTQ1LjczMjkzNWwtMC45NTk2OS0xLjAzMzUxMi0xLjQwMjYyNCAwLjIzMzc3YTEzNS45MDY5MTMgMTM1LjkwNjkxMyAwIDAgMS0yMS45NzQ0NDggMS43OTYzNDQgMTM0Ljg0ODc5MyAxMzQuODQ4NzkzIDAgMSAxIDk1LjUwMTQ5LTIzMC4yMzk1NSAxMzUuNTg3MDE2IDEzNS41ODcwMTYgMCAwIDEgMzcuNjg2MzAxIDExNy41MDA1NDVsLTAuMjIxNDY3IDEuMzY1NzEzIDAuOTk2NjAxIDAuOTU5NjkxYzEzLjkxNTUxIDEzLjQzNTY2NCAyOC44NzY4MzYgMjYuODIyMTE0IDQ1Ljc1NzU0MiA0MC45NDY3ODZsMi45NDA1OSAyLjQ2MDc0NSAxLjIzMDM3Mi0zLjYxNzI5NGMyNC40MjI4ODgtNzAuMjE3MzQxIDYuMzczMzI4LTE0OS40MTY0LTQ1Ljk3OTAwOS0yMDEuNzgxMDQxQTE5NC41MDk1NDEgMTk0LjUwOTU0MSAwIDAgMCA2MC4xMzMzNTMgMzMyLjA2MzE0N2ExOTEuNjU1MDc3IDE5MS42NTUwNzcgMCAwIDAgMTM3LjIyMzQxMSA1Ny4wODkyN3oiLz48cGF0aCBjbGFzcz0ic2VsZWN0ZWQiIGRhdGEtc3BtLWFuY2hvci1pZD0iYTMxM3guc2VhcmNoX2luZGV4LjAuaTAuMjE2ZDNhODFPZE03TmwiIGZpbGw9IiIgZD0iTTc4Mi4xNjQ5NzQgODM4LjUyMTI1NmMzLjE5ODk2OCAzLjQ1NzM0NiAxMC45MzgwMDkgMTIuMzAzNzIyIDEyLjUzNzQ5MyAxMy44Nzg1OThsMi4xNDA4NDggMi4xMjg1NDRjMTkuMjA2MTEgMTcuMDc3NTY2IDQ2LjY5MjYyNSAxOC40NTU1ODMgNjIuNzQ4OTgyIDIuNDYwNzQ0IDE0LjkzNjcxOC0xNC45MzY3MTggMTQuOTM2NzE4LTQwLjI4MjM4NiAwLjUyOTA2LTU4Ljk1OTQzNWExMzIuMTQxOTc0IDEzMi4xNDE5NzQgMCAwIDAtMTIuMzAzNzIyLTEyLjAwODQzM2MtMS41OTk0ODQtMS4zMjg4MDItMi45MjgyODYtMi40NjA3NDQtMy40Njk2NS0yLjkyODI4Ni00NC4wMjI3MTctNDAuNjAyMjgzLTE4Ny4wMTY1NzQtMTc5LjgzMTIwMS0xODQuMzU4OTctMjYxLjE5NTcxNHYtMjEuOTM3NTM2Yy0wLjI3MDY4Mi04MS45MDU4NzcgMTQwLjg3NzYxNy0yMTkuMDA2MjUxIDE4NC4zNTg5Ny0yNTkuMzM3ODUzIDAuNTI5MDYtMC41MjkwNiAxLjg3MDE2Ni0xLjU5OTQ4NCAzLjQ2OTY1LTIuOTI4Mjg1IDIuNjY5OTA4LTIuMTI4NTQ0IDEwLjY3OTYzMS0xMC4xMzgyNjcgMTIuMzAzNzIyLTEyLjAwODQzMyAxNC4xMzY5NzctMTguOTQ3NzMyIDE0LjQwNzY1OC00NC4wMjI3MTctMC41MjkwNi01OC45NTk0MzYtMTUuOTk0ODM5LTE1Ljk5NDgzOS00My40OTM2NTctMTQuNjY2MDM3LTYyLjc0ODk4MiAyLjQ2MDc0NWE0Ljc2MTU0IDQuNzYxNTQgMCAwIDAtMS4zMjg4MDIgMS4zNDExMDVsLTAuODEyMDQ2IDAuNzk5NzQyYy0xLjU5OTQ4NCAxLjU5OTQ4NC05LjMzODUyNSAxMC40MDg5NDktMTIuNTM3NDkzIDEzLjg3ODU5OS00Mi45NTIyOTMgNDUuODkyODgzLTE2OS42OTI5MzQgMTc0LjcxMjg1Mi0yNDkuOTk5MzI3IDE4MC42MzA5NDItNi4zOTc5MzUgMC41MjkwNi0yOC4wMTU1NzUgMC4yNzA2ODItMzMuMDg0NzA4IDAuMjcwNjgyLTgyLjE3NjU1OS0zLjE5ODk2OC0yMTYuMTE0ODc3LTE0MS40MDY2NzctMjU2LjEyNjU4MS0xODQuMzU4OTctMC41MjkwNi0wLjUyOTA2LTEuNTk5NDg0LTEuODcwMTY2LTIuOTI4Mjg2LTMuNDY5NjUtMi4xNDA4NDgtMi42Njk5MDgtMTAuMTM4MjY3LTEwLjY3OTYzMS0xMi4wMDg0MzItMTIuMzAzNzIyLTE4Ljk0NzczMi0xNC4xMzY5NzctNDQuMDIyNzE3LTE0LjQwNzY1OC01OC45NTk0MzYgMC41MjkwNi0xNS45OTQ4MzkgMTUuOTk0ODM5LTE0LjY2NjAzNyA0My40OTM2NTcgMi40NjA3NDQgNjIuNzQ4OTgyYTQuNjYzMTExIDQuNjYzMTExIDAgMCAwIDEuMzI4ODAyIDEuMzI4ODAybDAuNzk5NzQyIDAuNzk5NzQyYzEuNjExNzg4IDEuNjExNzg4IDEwLjQwODk0OSA5LjMzODUyNSAxMy44Nzg1OTkgMTIuNTQ5Nzk3IDQ0LjgyMjQ1OSA0MS42MjM0OTEgMTY4LjA5MzQ1IDE2My4yODI2OTUgMTgwLjA4OTU3OCAyNDMuNjEzNjk1IDEuMzI4ODAyIDguNTM4NzgzIDEuMzI4ODAyIDQ0LjAyMjcxNy0xLjA1ODEyIDU0Ljk2MDcyNkMzNDkuNDE4NDY0IDYyMi43NjMxODcgMjMxLjIyODkxMSA3MzkuMDMzMzYgMTg3LjczNTI1NCA3NzkuODU3MTA5Yy0zLjQ2OTY1IDMuMTk4OTY4LTEyLjMwMzcyMiAxMC45MzgwMDktMTMuODc4NTk5IDEyLjUzNzQ5M2wtMi4xNDA4NDcgMi4xNDA4NDhjLTE3LjA3NzU2NiAxOS4yMDYxMS0xOC40NTU1ODMgNDYuNjkyNjI1LTIuNDYwNzQ1IDYyLjc0ODk4MiAxNC45MzY3MTggMTQuOTQ5MDIyIDQwLjI4MjM4NiAxNC45NDkwMjIgNTguOTU5NDM2IDAuNTI5MDZhMTMxLjMyOTkyOSAxMzEuMzI5OTI5IDAgMCAwIDExLjk5NjEyOS0xMi4zMDM3MjJjMS4zMjg4MDItMS41OTk0ODQgMi40NjA3NDQtMi45MjgyODYgMi45MjgyODYtMy40Njk2NSAzOC45NTM1ODQtNDEuODMyNjU1IDE2Ny41NTIwODYtMTc0LjQ5MTM4NSAyNDkuOTk5MzI3LTE4My44Mjk5MSA3LjQ2ODM1OS0wLjgxMjA0NiAzMy44ODQ0NS0wLjgxMjA0NiA0MC42MDIyODMtMC4yNzA2ODIgODAuMzA2MzkzIDcuNzM5MDQxIDIwNS45NjQzMDYgMTM1LjAwODc0MSAyNDguMzg3NTM5IDE4MC42MzA5NDN6TTU3NS42NDcwMDEgNTczLjA0Mzg0NmE4Ny4yNDU2OTMgODcuMjQ1NjkzIDAgMSAxIDAtMTIzLjI1ODY4N2MzMy44ODQ0NSAzNC4xNTUxMzIgMzMuODg0NDUgODkuMzc0MjM3IDAgMTIzLjI1ODY4N3ogbTAgMCIvPjwvc3ZnPg==;" vertex="1" parent="1">
          <mxGeometry x="560" y="1630" width="100" height="100" as="geometry" />
        </mxCell>
        <mxCell id="XepEtMXgXSmg0DPBAmvP-6" value="&lt;font style=&quot;font-size: 30px;&quot;&gt;无人机&lt;/font&gt;" style="text;strokeColor=none;align=center;fillColor=none;html=1;verticalAlign=middle;whiteSpace=wrap;rounded=0;" vertex="1" parent="1">
          <mxGeometry x="531.52" y="1800" width="170" height="30" as="geometry" />
        </mxCell>
        <mxCell id="XepEtMXgXSmg0DPBAmvP-7" value="" style="shape=mxgraph.signs.nature.sun_3;html=1;pointerEvents=1;fillColor=#ffcd28;strokeColor=#d79b00;verticalLabelPosition=bottom;verticalAlign=top;align=center;sketch=0;gradientColor=#ffa500;" vertex="1" parent="1">
          <mxGeometry x="480" y="1451" width="98" height="98" as="geometry" />
        </mxCell>
        <mxCell id="XepEtMXgXSmg0DPBAmvP-9" value="" style="shape=mxgraph.cisco.buildings.generic_building;html=1;pointerEvents=1;dashed=0;fillColor=#036897;strokeColor=#ffffff;strokeWidth=2;verticalLabelPosition=bottom;verticalAlign=top;align=center;outlineConnect=0;" vertex="1" parent="1">
          <mxGeometry x="960" y="1500" width="181.48" height="200" as="geometry" />
        </mxCell>
        <mxCell id="XepEtMXgXSmg0DPBAmvP-11" value="" style="endArrow=none;html=1;rounded=1;strokeColor=default;entryX=0.5;entryY=0.742;entryDx=0;entryDy=0;entryPerimeter=0;targetPerimeterSpacing=8;curved=0;jumpStyle=arc;strokeWidth=3;exitX=-0.004;exitY=0.743;exitDx=0;exitDy=0;exitPerimeter=0;" edge="1" parent="1">
          <mxGeometry width="50" height="50" relative="1" as="geometry">
            <mxPoint x="435" y="1441" as="sourcePoint" />
            <mxPoint x="879" y="1440" as="targetPoint" />
            <Array as="points">
              <mxPoint x="1319" y="1440" />
            </Array>
          </mxGeometry>
        </mxCell>
        <mxCell id="XepEtMXgXSmg0DPBAmvP-12" value="&lt;font style=&quot;font-size: 38px;&quot;&gt;目标建筑&lt;/font&gt;" style="text;strokeColor=none;align=center;fillColor=none;html=1;verticalAlign=middle;whiteSpace=wrap;rounded=0;" vertex="1" parent="1">
          <mxGeometry x="951.48" y="1730" width="190" height="90" as="geometry" />
        </mxCell>
        <mxCell id="XepEtMXgXSmg0DPBAmvP-13" value="" style="shape=actor;whiteSpace=wrap;html=1;fillColor=#008a00;fontColor=#ffffff;strokeColor=#005700;" vertex="1" parent="1">
          <mxGeometry x="821.76" y="1660" width="90" height="100" as="geometry" />
        </mxCell>
        <mxCell id="XepEtMXgXSmg0DPBAmvP-14" value="&lt;font face=&quot;Comic Sans MS&quot; style=&quot;font-size: 20px;&quot;&gt;操作人员&lt;/font&gt;" style="text;strokeColor=none;align=center;fillColor=none;html=1;verticalAlign=middle;whiteSpace=wrap;rounded=0;" vertex="1" parent="1">
          <mxGeometry x="808.52" y="1820" width="116.48" height="30" as="geometry" />
        </mxCell>
        <mxCell id="XepEtMXgXSmg0DPBAmvP-15" value="" style="shape=image;imageAspect=0;aspect=fixed;verticalLabelPosition=bottom;verticalAlign=top;image=data:image/svg+xml,PHN2ZyB4bWxuczp4bGluaz0iaHR0cDovL3d3dy53My5vcmcvMTk5OS94bGluayIgeG1sbnM9Imh0dHA6Ly93d3cudzMub3JnLzIwMDAvc3ZnIiBoZWlnaHQ9IjIwMCIgd2lkdGg9IjIwMCIgdmVyc2lvbj0iMS4xIiB2aWV3Qm94PSIwIDAgMTAyNCAxMDI0IiBjbGFzcz0iaWNvbiI+PHBhdGggZmlsbD0iIzI5NkZEQiIgZD0iTTUxMi4wNDAwODYgMEM3NTkuOTc3MDk0IDAgOTYwLjkyMTk3NiAyMDAuOTY3Nzg4IDk2MC45MjE5NzYgNDQ4Ljg4MTg5YzAgMjA1Ljk5NTcwNS0xMzguNzQzMDIxIDM3OS41NzkwOTgtMzI3LjkwMjY0OSA0MzIuMzg5NDA2LTM4LjUxNjgyMiAxMC43MzE1NjgtNzkuMDcyMjk4IDE0Mi43Mjg3MDQtMTIwLjk3OTI0MSAxNDIuNzI4NzA0cy04Mi40NjI0MTktMTMxLjk5NzEzNy0xMjAuOTU2MzM1LTE0Mi43Mjg3MDRDMjAxLjkyNDEyMyA4MjguNTI5NzA3IDYzLjA3ODAyNCA2NTQuOTExOTU0IDYzLjA3ODAyNCA0NDguODgxODkgNjMuMDc4MDI0IDIwMC45Njc3ODggMjY0LjA1NzI2NiAwIDUxMi4wNDAwODYgMHoiLz48cGF0aCBmaWxsPSIjRkZGRkZGIiBkPSJNNjg2LjIzMDQ5NCAyMTMuMTE5NTQyYTEyLjg5ODQ5NyAxMi44OTg0OTcgMCAwIDAtMjIuNzgwMjQzIDEyLjEwNTk0MSAyODQuNjU1NjkxIDI4NC42NTU2OTEgMCAwIDEgMC4wODAxNzEgMjY3LjI0Njk1OCAxMi44MTYwMzQgMTIuODE2MDM0IDAgMCAwIDAuNTAzOTM3IDEyLjg3MzMgMTIuODk2MjA2IDEyLjg5NjIwNiAwIDAgMCAyMi4yODc3Ni0wLjc3ODgxMiAzMTAuNTk2OTk0IDMxMC41OTY5OTQgMCAwIDAtMC4wOTE2MjUtMjkxLjQ0NzM4N3oiLz48cGF0aCBmaWxsPSIjRkZGRkZGIiBkPSJNNjMyLjc2NzM1OSA0NTUuMTY5NjQ5YTEyLjMwMDY0NCAxMi4zMDA2NDQgMCAwIDAgMjEuODk4MzUzLTIuMjMzMzU3IDI2Mi4yNzYzMDYgMjYyLjI3NjMwNiAwIDAgMCAwLTE4OC4xODYxMTMgMTIuMzAwNjQ0IDEyLjMwMDY0NCAwIDAgMC0yMS44OTgzNTMtMi4yOTA2MjMgMTIuMTUxNzU0IDEyLjE1MTc1NCAwIDAgMC0xLjE0NTMxMiAxMC44NTc1NTIgMjM3LjY2MzU2NSAyMzcuNjYzNTY1IDAgMCAxIDAgMTcwLjk0OTE3NyAxMi4xNTE3NTQgMTIuMTUxNzU0IDAgMCAwIDEuMTQ1MzEyIDEwLjkwMzM2NHpNNTk2Ljg1MDM5NCAzOTcuNzg5NTQ5YTExLjY4MjE3NiAxMS42ODIxNzYgMCAwIDAgMjEuNDA1ODY5LTQuMzA2MzcxIDIxMi42Mzg1MTEgMjEyLjYzODUxMSAwIDAgMCAwLTY5LjQxNzMyMyAxMS42ODIxNzYgMTEuNjgyMTc2IDAgMSAwLTIzLjAyMDc1OCAzLjk1MTMyNSAxODguMTQwMzAxIDE4OC4xNDAzMDEgMCAwIDEgMCA2MS41MTQ2NzQgMTEuNzUwODk1IDExLjc1MDg5NSAwIDAgMCAxLjYxNDg4OSA4LjI1NzY5NXpNMzYwLjQ2OTU3OCA0OTIuNDcyNDQxYTI4NC42NTU2OTEgMjg0LjY1NTY5MSAwIDAgMSAwLjA4MDE3MS0yNjcuMjQ2OTU4IDEyLjgxNjAzNCAxMi44MTYwMzQgMCAwIDAtMC40OTI0ODMtMTIuODg0NzUzIDEyLjkwNzY1OSAxMi45MDc2NTkgMCAwIDAtMjIuMjg3NzYgMC43Nzg4MTIgMzEwLjU5Njk5NCAzMTAuNTk2OTk0IDAgMCAwLTAuMDkxNjI1IDI5MS40NDczODcgMTIuODk2MjA2IDEyLjg5NjIwNiAwIDAgMCAyMi4yODc3NiAwLjc3ODgxMiAxMi44Mzg5NDEgMTIuODM4OTQxIDAgMCAwIDAuNTAzOTM3LTEyLjg3MzN6Ii8+PHBhdGggZmlsbD0iI0ZGRkZGRiIgZD0iTTM2OS4zMzQyODggNDUyLjkzNjI5MmExMi4zMDA2NDQgMTIuMzAwNjQ0IDAgMCAwIDIxLjg5ODM1MyAyLjIzMzM1NyAxMi4xNTE3NTQgMTIuMTUxNzU0IDAgMCAwIDEuMTQ1MzEyLTEwLjg1NzU1MiAyMzcuNjYzNTY1IDIzNy42NjM1NjUgMCAwIDEgMC0xNzAuOTQ5MTc2IDEyLjEyODg0OCAxMi4xMjg4NDggMCAwIDAtMS4xNDUzMTItMTAuODQ2MDk5IDEyLjMwMDY0NCAxMi4zMDA2NDQgMCAwIDAtMjEuODk4MzUzIDIuMjMzMzU3IDI2Mi4yNzYzMDYgMjYyLjI3NjMwNiAwIDAgMCAwIDE4OC4xODYxMTN6TTQyNy4xNDk2MDYgMzk3Ljc4OTU0OWExMS43NTA4OTUgMTEuNzUwODk1IDAgMCAwIDEuNjE0ODg5LTguMjU3Njk1IDE4OC45NzYzNzggMTg4Ljk3NjM3OCAwIDAgMSAwLTYxLjUxNDY3NCAxMS42ODIxNzYgMTEuNjgyMTc2IDAgMSAwLTIzLjAyMDc1OC0zLjk1MTMyNSAyMTIuNjM4NTExIDIxMi42Mzg1MTEgMCAwIDAgMCA2OS40MTczMjMgMTEuNjgyMTc2IDExLjY4MjE3NiAwIDAgMCAyMS40MDU4NjkgNC4zMDYzNzF6TTY0My41Njc2NDUgNjIyLjE2NzUwMmExNi43MjE1NDYgMTYuNzIxNTQ2IDAgMCAwLTguMDE3MTgtMzEuNDE1ODkxaC01LjA1MDgyM0w1OTcuOTcyNzk5IDUxMi4zMzIxNGExNi43MjE1NDYgMTYuNzIxNTQ2IDAgMCAwLTguMjY5MTQ4LTMxLjI0NDA5NGgtNC42OTU3NzdMNTI5LjM2ODY0NyAzNDYuOTM3NzI0YTE3LjQ2NTk5OSAxNy40NjU5OTkgMCAwIDAtMTAuNDU2NjkzLTEyLjg4NDc1MyAxOC41ODg0MDQgMTguNTg4NDA0IDAgMCAwLTEzLjgwMTAwMiAwIDE3LjQ2NTk5OSAxNy40NjU5OTkgMCAwIDAtMTAuNDY4MTQ2IDEyLjg4NDc1M2wtNTUuNjg1MDM5IDEzNC4xODQ2ODFoLTQuNjg0MzI0YTE2LjcyMTU0NiAxNi43MjE1NDYgMCAwIDAtOC4yODA2MDEgMzEuMjQ0MDk1bC0zMi41MjY4NDMgNzguNDE5NDdoLTUuMDM5MzcxYTE2LjcyMTU0NiAxNi43MjE1NDYgMCAwIDAtOC4wMTcxNzkgMzEuNDE1ODkxbC0xOC4wOTU5MiA0My42MzYzNjRhMTcuNDg4OTA1IDE3LjQ4ODkwNSAwIDAgMCAzMi4yOTc3ODEgMTMuNDAwMTQzbDIyLjgyNjA1Ni01NC45NzQ5NDZoMTg5LjEwMjM2MmwyMi44MjYwNTYgNTQuOTc0OTQ2YTE3LjQ3NzQ1MiAxNy40Nzc0NTIgMCAwIDAgMjIuODQ4OTYyIDkuNDQ4ODE5IDE3LjQ4ODkwNSAxNy40ODg5MDUgMCAwIDAgOS40NDg4MTktMjIuOTA2MjI4ek01MTIuMDQwMDg2IDM5Ni4zMjM1NWwzNS4xODM5NjYgODQuNzUzMDQzaC03MC40MDIyOTF6IG0tNDkuMDg4MDQ2IDExOC4yNDE5NDdoNDQuNTA2OGwtNjYuNTY1NDk3IDUzLjA2MjI3N3ogbTIuNTc2OTUxIDc2LjIyMDQ3M2w5Mi42MjEzMzEtNzMuODE1MzE5YTE2LjcyMTU0NiAxNi43MjE1NDYgMCAwIDAgMi40Mzk1MTMtMi40MDUxNTRoMC40NTgxMjVsMzEuNjIyMDQ3IDc2LjIyMDQ3M3oiLz48L3N2Zz4=;shadow=1;" vertex="1" parent="1">
          <mxGeometry x="490" y="1150" width="100" height="100" as="geometry" />
        </mxCell>
        <mxCell id="XepEtMXgXSmg0DPBAmvP-16" value="" style="shape=image;imageAspect=0;aspect=fixed;verticalLabelPosition=bottom;verticalAlign=top;image=data:image/svg+xml,PHN2ZyB4bWxuczp4bGluaz0iaHR0cDovL3d3dy53My5vcmcvMTk5OS94bGluayIgeG1sbnM9Imh0dHA6Ly93d3cudzMub3JnLzIwMDAvc3ZnIiBoZWlnaHQ9IjIwMCIgd2lkdGg9IjIwMCIgdmVyc2lvbj0iMS4xIiB2aWV3Qm94PSIwIDAgMTAyNCAxMDI0IiBjbGFzcz0iaWNvbiI+PHBhdGggZmlsbD0iIzI5NkZEQiIgZD0iTTUxMi4wNDAwODYgMEM3NTkuOTc3MDk0IDAgOTYwLjkyMTk3NiAyMDAuOTY3Nzg4IDk2MC45MjE5NzYgNDQ4Ljg4MTg5YzAgMjA1Ljk5NTcwNS0xMzguNzQzMDIxIDM3OS41NzkwOTgtMzI3LjkwMjY0OSA0MzIuMzg5NDA2LTM4LjUxNjgyMiAxMC43MzE1NjgtNzkuMDcyMjk4IDE0Mi43Mjg3MDQtMTIwLjk3OTI0MSAxNDIuNzI4NzA0cy04Mi40NjI0MTktMTMxLjk5NzEzNy0xMjAuOTU2MzM1LTE0Mi43Mjg3MDRDMjAxLjkyNDEyMyA4MjguNTI5NzA3IDYzLjA3ODAyNCA2NTQuOTExOTU0IDYzLjA3ODAyNCA0NDguODgxODkgNjMuMDc4MDI0IDIwMC45Njc3ODggMjY0LjA1NzI2NiAwIDUxMi4wNDAwODYgMHoiLz48cGF0aCBmaWxsPSIjRkZGRkZGIiBkPSJNNjg2LjIzMDQ5NCAyMTMuMTE5NTQyYTEyLjg5ODQ5NyAxMi44OTg0OTcgMCAwIDAtMjIuNzgwMjQzIDEyLjEwNTk0MSAyODQuNjU1NjkxIDI4NC42NTU2OTEgMCAwIDEgMC4wODAxNzEgMjY3LjI0Njk1OCAxMi44MTYwMzQgMTIuODE2MDM0IDAgMCAwIDAuNTAzOTM3IDEyLjg3MzMgMTIuODk2MjA2IDEyLjg5NjIwNiAwIDAgMCAyMi4yODc3Ni0wLjc3ODgxMiAzMTAuNTk2OTk0IDMxMC41OTY5OTQgMCAwIDAtMC4wOTE2MjUtMjkxLjQ0NzM4N3oiLz48cGF0aCBmaWxsPSIjRkZGRkZGIiBkPSJNNjMyLjc2NzM1OSA0NTUuMTY5NjQ5YTEyLjMwMDY0NCAxMi4zMDA2NDQgMCAwIDAgMjEuODk4MzUzLTIuMjMzMzU3IDI2Mi4yNzYzMDYgMjYyLjI3NjMwNiAwIDAgMCAwLTE4OC4xODYxMTMgMTIuMzAwNjQ0IDEyLjMwMDY0NCAwIDAgMC0yMS44OTgzNTMtMi4yOTA2MjMgMTIuMTUxNzU0IDEyLjE1MTc1NCAwIDAgMC0xLjE0NTMxMiAxMC44NTc1NTIgMjM3LjY2MzU2NSAyMzcuNjYzNTY1IDAgMCAxIDAgMTcwLjk0OTE3NyAxMi4xNTE3NTQgMTIuMTUxNzU0IDAgMCAwIDEuMTQ1MzEyIDEwLjkwMzM2NHpNNTk2Ljg1MDM5NCAzOTcuNzg5NTQ5YTExLjY4MjE3NiAxMS42ODIxNzYgMCAwIDAgMjEuNDA1ODY5LTQuMzA2MzcxIDIxMi42Mzg1MTEgMjEyLjYzODUxMSAwIDAgMCAwLTY5LjQxNzMyMyAxMS42ODIxNzYgMTEuNjgyMTc2IDAgMSAwLTIzLjAyMDc1OCAzLjk1MTMyNSAxODguMTQwMzAxIDE4OC4xNDAzMDEgMCAwIDEgMCA2MS41MTQ2NzQgMTEuNzUwODk1IDExLjc1MDg5NSAwIDAgMCAxLjYxNDg4OSA4LjI1NzY5NXpNMzYwLjQ2OTU3OCA0OTIuNDcyNDQxYTI4NC42NTU2OTEgMjg0LjY1NTY5MSAwIDAgMSAwLjA4MDE3MS0yNjcuMjQ2OTU4IDEyLjgxNjAzNCAxMi44MTYwMzQgMCAwIDAtMC40OTI0ODMtMTIuODg0NzUzIDEyLjkwNzY1OSAxMi45MDc2NTkgMCAwIDAtMjIuMjg3NzYgMC43Nzg4MTIgMzEwLjU5Njk5NCAzMTAuNTk2OTk0IDAgMCAwLTAuMDkxNjI1IDI5MS40NDczODcgMTIuODk2MjA2IDEyLjg5NjIwNiAwIDAgMCAyMi4yODc3NiAwLjc3ODgxMiAxMi44Mzg5NDEgMTIuODM4OTQxIDAgMCAwIDAuNTAzOTM3LTEyLjg3MzN6Ii8+PHBhdGggZmlsbD0iI0ZGRkZGRiIgZD0iTTM2OS4zMzQyODggNDUyLjkzNjI5MmExMi4zMDA2NDQgMTIuMzAwNjQ0IDAgMCAwIDIxLjg5ODM1MyAyLjIzMzM1NyAxMi4xNTE3NTQgMTIuMTUxNzU0IDAgMCAwIDEuMTQ1MzEyLTEwLjg1NzU1MiAyMzcuNjYzNTY1IDIzNy42NjM1NjUgMCAwIDEgMC0xNzAuOTQ5MTc2IDEyLjEyODg0OCAxMi4xMjg4NDggMCAwIDAtMS4xNDUzMTItMTAuODQ2MDk5IDEyLjMwMDY0NCAxMi4zMDA2NDQgMCAwIDAtMjEuODk4MzUzIDIuMjMzMzU3IDI2Mi4yNzYzMDYgMjYyLjI3NjMwNiAwIDAgMCAwIDE4OC4xODYxMTN6TTQyNy4xNDk2MDYgMzk3Ljc4OTU0OWExMS43NTA4OTUgMTEuNzUwODk1IDAgMCAwIDEuNjE0ODg5LTguMjU3Njk1IDE4OC45NzYzNzggMTg4Ljk3NjM3OCAwIDAgMSAwLTYxLjUxNDY3NCAxMS42ODIxNzYgMTEuNjgyMTc2IDAgMSAwLTIzLjAyMDc1OC0zLjk1MTMyNSAyMTIuNjM4NTExIDIxMi42Mzg1MTEgMCAwIDAgMCA2OS40MTczMjMgMTEuNjgyMTc2IDExLjY4MjE3NiAwIDAgMCAyMS40MDU4NjkgNC4zMDYzNzF6TTY0My41Njc2NDUgNjIyLjE2NzUwMmExNi43MjE1NDYgMTYuNzIxNTQ2IDAgMCAwLTguMDE3MTgtMzEuNDE1ODkxaC01LjA1MDgyM0w1OTcuOTcyNzk5IDUxMi4zMzIxNGExNi43MjE1NDYgMTYuNzIxNTQ2IDAgMCAwLTguMjY5MTQ4LTMxLjI0NDA5NGgtNC42OTU3NzdMNTI5LjM2ODY0NyAzNDYuOTM3NzI0YTE3LjQ2NTk5OSAxNy40NjU5OTkgMCAwIDAtMTAuNDU2NjkzLTEyLjg4NDc1MyAxOC41ODg0MDQgMTguNTg4NDA0IDAgMCAwLTEzLjgwMTAwMiAwIDE3LjQ2NTk5OSAxNy40NjU5OTkgMCAwIDAtMTAuNDY4MTQ2IDEyLjg4NDc1M2wtNTUuNjg1MDM5IDEzNC4xODQ2ODFoLTQuNjg0MzI0YTE2LjcyMTU0NiAxNi43MjE1NDYgMCAwIDAtOC4yODA2MDEgMzEuMjQ0MDk1bC0zMi41MjY4NDMgNzguNDE5NDdoLTUuMDM5MzcxYTE2LjcyMTU0NiAxNi43MjE1NDYgMCAwIDAtOC4wMTcxNzkgMzEuNDE1ODkxbC0xOC4wOTU5MiA0My42MzYzNjRhMTcuNDg4OTA1IDE3LjQ4ODkwNSAwIDAgMCAzMi4yOTc3ODEgMTMuNDAwMTQzbDIyLjgyNjA1Ni01NC45NzQ5NDZoMTg5LjEwMjM2MmwyMi44MjYwNTYgNTQuOTc0OTQ2YTE3LjQ3NzQ1MiAxNy40Nzc0NTIgMCAwIDAgMjIuODQ4OTYyIDkuNDQ4ODE5IDE3LjQ4ODkwNSAxNy40ODg5MDUgMCAwIDAgOS40NDg4MTktMjIuOTA2MjI4ek01MTIuMDQwMDg2IDM5Ni4zMjM1NWwzNS4xODM5NjYgODQuNzUzMDQzaC03MC40MDIyOTF6IG0tNDkuMDg4MDQ2IDExOC4yNDE5NDdoNDQuNTA2OGwtNjYuNTY1NDk3IDUzLjA2MjI3N3ogbTIuNTc2OTUxIDc2LjIyMDQ3M2w5Mi42MjEzMzEtNzMuODE1MzE5YTE2LjcyMTU0NiAxNi43MjE1NDYgMCAwIDAgMi40Mzk1MTMtMi40MDUxNTRoMC40NTgxMjVsMzEuNjIyMDQ3IDc2LjIyMDQ3M3oiLz48L3N2Zz4=;" vertex="1" parent="1">
          <mxGeometry x="663.52" y="1290" width="100" height="100" as="geometry" />
        </mxCell>
        <mxCell id="XepEtMXgXSmg0DPBAmvP-18" value="" style="shape=image;imageAspect=0;aspect=fixed;verticalLabelPosition=bottom;verticalAlign=top;image=data:image/svg+xml,PHN2ZyB4bWxuczp4bGluaz0iaHR0cDovL3d3dy53My5vcmcvMTk5OS94bGluayIgeG1sbnM9Imh0dHA6Ly93d3cudzMub3JnLzIwMDAvc3ZnIiBoZWlnaHQ9IjIwMCIgd2lkdGg9IjIwMCIgdmVyc2lvbj0iMS4xIiB2aWV3Qm94PSIwIDAgMTAyNCAxMDI0IiBjbGFzcz0iaWNvbiI+PHBhdGggZmlsbD0iIzI5NkZEQiIgZD0iTTUxMi4wNDAwODYgMEM3NTkuOTc3MDk0IDAgOTYwLjkyMTk3NiAyMDAuOTY3Nzg4IDk2MC45MjE5NzYgNDQ4Ljg4MTg5YzAgMjA1Ljk5NTcwNS0xMzguNzQzMDIxIDM3OS41NzkwOTgtMzI3LjkwMjY0OSA0MzIuMzg5NDA2LTM4LjUxNjgyMiAxMC43MzE1NjgtNzkuMDcyMjk4IDE0Mi43Mjg3MDQtMTIwLjk3OTI0MSAxNDIuNzI4NzA0cy04Mi40NjI0MTktMTMxLjk5NzEzNy0xMjAuOTU2MzM1LTE0Mi43Mjg3MDRDMjAxLjkyNDEyMyA4MjguNTI5NzA3IDYzLjA3ODAyNCA2NTQuOTExOTU0IDYzLjA3ODAyNCA0NDguODgxODkgNjMuMDc4MDI0IDIwMC45Njc3ODggMjY0LjA1NzI2NiAwIDUxMi4wNDAwODYgMHoiLz48cGF0aCBmaWxsPSIjRkZGRkZGIiBkPSJNNjg2LjIzMDQ5NCAyMTMuMTE5NTQyYTEyLjg5ODQ5NyAxMi44OTg0OTcgMCAwIDAtMjIuNzgwMjQzIDEyLjEwNTk0MSAyODQuNjU1NjkxIDI4NC42NTU2OTEgMCAwIDEgMC4wODAxNzEgMjY3LjI0Njk1OCAxMi44MTYwMzQgMTIuODE2MDM0IDAgMCAwIDAuNTAzOTM3IDEyLjg3MzMgMTIuODk2MjA2IDEyLjg5NjIwNiAwIDAgMCAyMi4yODc3Ni0wLjc3ODgxMiAzMTAuNTk2OTk0IDMxMC41OTY5OTQgMCAwIDAtMC4wOTE2MjUtMjkxLjQ0NzM4N3oiLz48cGF0aCBmaWxsPSIjRkZGRkZGIiBkPSJNNjMyLjc2NzM1OSA0NTUuMTY5NjQ5YTEyLjMwMDY0NCAxMi4zMDA2NDQgMCAwIDAgMjEuODk4MzUzLTIuMjMzMzU3IDI2Mi4yNzYzMDYgMjYyLjI3NjMwNiAwIDAgMCAwLTE4OC4xODYxMTMgMTIuMzAwNjQ0IDEyLjMwMDY0NCAwIDAgMC0yMS44OTgzNTMtMi4yOTA2MjMgMTIuMTUxNzU0IDEyLjE1MTc1NCAwIDAgMC0xLjE0NTMxMiAxMC44NTc1NTIgMjM3LjY2MzU2NSAyMzcuNjYzNTY1IDAgMCAxIDAgMTcwLjk0OTE3NyAxMi4xNTE3NTQgMTIuMTUxNzU0IDAgMCAwIDEuMTQ1MzEyIDEwLjkwMzM2NHpNNTk2Ljg1MDM5NCAzOTcuNzg5NTQ5YTExLjY4MjE3NiAxMS42ODIxNzYgMCAwIDAgMjEuNDA1ODY5LTQuMzA2MzcxIDIxMi42Mzg1MTEgMjEyLjYzODUxMSAwIDAgMCAwLTY5LjQxNzMyMyAxMS42ODIxNzYgMTEuNjgyMTc2IDAgMSAwLTIzLjAyMDc1OCAzLjk1MTMyNSAxODguMTQwMzAxIDE4OC4xNDAzMDEgMCAwIDEgMCA2MS41MTQ2NzQgMTEuNzUwODk1IDExLjc1MDg5NSAwIDAgMCAxLjYxNDg4OSA4LjI1NzY5NXpNMzYwLjQ2OTU3OCA0OTIuNDcyNDQxYTI4NC42NTU2OTEgMjg0LjY1NTY5MSAwIDAgMSAwLjA4MDE3MS0yNjcuMjQ2OTU4IDEyLjgxNjAzNCAxMi44MTYwMzQgMCAwIDAtMC40OTI0ODMtMTIuODg0NzUzIDEyLjkwNzY1OSAxMi45MDc2NTkgMCAwIDAtMjIuMjg3NzYgMC43Nzg4MTIgMzEwLjU5Njk5NCAzMTAuNTk2OTk0IDAgMCAwLTAuMDkxNjI1IDI5MS40NDczODcgMTIuODk2MjA2IDEyLjg5NjIwNiAwIDAgMCAyMi4yODc3NiAwLjc3ODgxMiAxMi44Mzg5NDEgMTIuODM4OTQxIDAgMCAwIDAuNTAzOTM3LTEyLjg3MzN6Ii8+PHBhdGggZmlsbD0iI0ZGRkZGRiIgZD0iTTM2OS4zMzQyODggNDUyLjkzNjI5MmExMi4zMDA2NDQgMTIuMzAwNjQ0IDAgMCAwIDIxLjg5ODM1MyAyLjIzMzM1NyAxMi4xNTE3NTQgMTIuMTUxNzU0IDAgMCAwIDEuMTQ1MzEyLTEwLjg1NzU1MiAyMzcuNjYzNTY1IDIzNy42NjM1NjUgMCAwIDEgMC0xNzAuOTQ5MTc2IDEyLjEyODg0OCAxMi4xMjg4NDggMCAwIDAtMS4xNDUzMTItMTAuODQ2MDk5IDEyLjMwMDY0NCAxMi4zMDA2NDQgMCAwIDAtMjEuODk4MzUzIDIuMjMzMzU3IDI2Mi4yNzYzMDYgMjYyLjI3NjMwNiAwIDAgMCAwIDE4OC4xODYxMTN6TTQyNy4xNDk2MDYgMzk3Ljc4OTU0OWExMS43NTA4OTUgMTEuNzUwODk1IDAgMCAwIDEuNjE0ODg5LTguMjU3Njk1IDE4OC45NzYzNzggMTg4Ljk3NjM3OCAwIDAgMSAwLTYxLjUxNDY3NCAxMS42ODIxNzYgMTEuNjgyMTc2IDAgMSAwLTIzLjAyMDc1OC0zLjk1MTMyNSAyMTIuNjM4NTExIDIxMi42Mzg1MTEgMCAwIDAgMCA2OS40MTczMjMgMTEuNjgyMTc2IDExLjY4MjE3NiAwIDAgMCAyMS40MDU4NjkgNC4zMDYzNzF6TTY0My41Njc2NDUgNjIyLjE2NzUwMmExNi43MjE1NDYgMTYuNzIxNTQ2IDAgMCAwLTguMDE3MTgtMzEuNDE1ODkxaC01LjA1MDgyM0w1OTcuOTcyNzk5IDUxMi4zMzIxNGExNi43MjE1NDYgMTYuNzIxNTQ2IDAgMCAwLTguMjY5MTQ4LTMxLjI0NDA5NGgtNC42OTU3NzdMNTI5LjM2ODY0NyAzNDYuOTM3NzI0YTE3LjQ2NTk5OSAxNy40NjU5OTkgMCAwIDAtMTAuNDU2NjkzLTEyLjg4NDc1MyAxOC41ODg0MDQgMTguNTg4NDA0IDAgMCAwLTEzLjgwMTAwMiAwIDE3LjQ2NTk5OSAxNy40NjU5OTkgMCAwIDAtMTAuNDY4MTQ2IDEyLjg4NDc1M2wtNTUuNjg1MDM5IDEzNC4xODQ2ODFoLTQuNjg0MzI0YTE2LjcyMTU0NiAxNi43MjE1NDYgMCAwIDAtOC4yODA2MDEgMzEuMjQ0MDk1bC0zMi41MjY4NDMgNzguNDE5NDdoLTUuMDM5MzcxYTE2LjcyMTU0NiAxNi43MjE1NDYgMCAwIDAtOC4wMTcxNzkgMzEuNDE1ODkxbC0xOC4wOTU5MiA0My42MzYzNjRhMTcuNDg4OTA1IDE3LjQ4ODkwNSAwIDAgMCAzMi4yOTc3ODEgMTMuNDAwMTQzbDIyLjgyNjA1Ni01NC45NzQ5NDZoMTg5LjEwMjM2MmwyMi44MjYwNTYgNTQuOTc0OTQ2YTE3LjQ3NzQ1MiAxNy40Nzc0NTIgMCAwIDAgMjIuODQ4OTYyIDkuNDQ4ODE5IDE3LjQ4ODkwNSAxNy40ODg5MDUgMCAwIDAgOS40NDg4MTktMjIuOTA2MjI4ek01MTIuMDQwMDg2IDM5Ni4zMjM1NWwzNS4xODM5NjYgODQuNzUzMDQzaC03MC40MDIyOTF6IG0tNDkuMDg4MDQ2IDExOC4yNDE5NDdoNDQuNTA2OGwtNjYuNTY1NDk3IDUzLjA2MjI3N3ogbTIuNTc2OTUxIDc2LjIyMDQ3M2w5Mi42MjEzMzEtNzMuODE1MzE5YTE2LjcyMTU0NiAxNi43MjE1NDYgMCAwIDAgMi40Mzk1MTMtMi40MDUxNTRoMC40NTgxMjVsMzEuNjIyMDQ3IDc2LjIyMDQ3M3oiLz48L3N2Zz4=;" vertex="1" parent="1">
          <mxGeometry x="683.52" y="1050" width="100" height="100" as="geometry" />
        </mxCell>
        <mxCell id="XepEtMXgXSmg0DPBAmvP-19" value="" style="shape=image;imageAspect=0;aspect=fixed;verticalLabelPosition=bottom;verticalAlign=top;image=data:image/svg+xml,PHN2ZyB4bWxuczp4bGluaz0iaHR0cDovL3d3dy53My5vcmcvMTk5OS94bGluayIgeG1sbnM9Imh0dHA6Ly93d3cudzMub3JnLzIwMDAvc3ZnIiBoZWlnaHQ9IjIwMCIgd2lkdGg9IjIwMCIgdmVyc2lvbj0iMS4xIiB2aWV3Qm94PSIwIDAgMTAyNCAxMDI0IiBjbGFzcz0iaWNvbiI+PHBhdGggZmlsbD0iIzI5NkZEQiIgZD0iTTUxMi4wNDAwODYgMEM3NTkuOTc3MDk0IDAgOTYwLjkyMTk3NiAyMDAuOTY3Nzg4IDk2MC45MjE5NzYgNDQ4Ljg4MTg5YzAgMjA1Ljk5NTcwNS0xMzguNzQzMDIxIDM3OS41NzkwOTgtMzI3LjkwMjY0OSA0MzIuMzg5NDA2LTM4LjUxNjgyMiAxMC43MzE1NjgtNzkuMDcyMjk4IDE0Mi43Mjg3MDQtMTIwLjk3OTI0MSAxNDIuNzI4NzA0cy04Mi40NjI0MTktMTMxLjk5NzEzNy0xMjAuOTU2MzM1LTE0Mi43Mjg3MDRDMjAxLjkyNDEyMyA4MjguNTI5NzA3IDYzLjA3ODAyNCA2NTQuOTExOTU0IDYzLjA3ODAyNCA0NDguODgxODkgNjMuMDc4MDI0IDIwMC45Njc3ODggMjY0LjA1NzI2NiAwIDUxMi4wNDAwODYgMHoiLz48cGF0aCBmaWxsPSIjRkZGRkZGIiBkPSJNNjg2LjIzMDQ5NCAyMTMuMTE5NTQyYTEyLjg5ODQ5NyAxMi44OTg0OTcgMCAwIDAtMjIuNzgwMjQzIDEyLjEwNTk0MSAyODQuNjU1NjkxIDI4NC42NTU2OTEgMCAwIDEgMC4wODAxNzEgMjY3LjI0Njk1OCAxMi44MTYwMzQgMTIuODE2MDM0IDAgMCAwIDAuNTAzOTM3IDEyLjg3MzMgMTIuODk2MjA2IDEyLjg5NjIwNiAwIDAgMCAyMi4yODc3Ni0wLjc3ODgxMiAzMTAuNTk2OTk0IDMxMC41OTY5OTQgMCAwIDAtMC4wOTE2MjUtMjkxLjQ0NzM4N3oiLz48cGF0aCBmaWxsPSIjRkZGRkZGIiBkPSJNNjMyLjc2NzM1OSA0NTUuMTY5NjQ5YTEyLjMwMDY0NCAxMi4zMDA2NDQgMCAwIDAgMjEuODk4MzUzLTIuMjMzMzU3IDI2Mi4yNzYzMDYgMjYyLjI3NjMwNiAwIDAgMCAwLTE4OC4xODYxMTMgMTIuMzAwNjQ0IDEyLjMwMDY0NCAwIDAgMC0yMS44OTgzNTMtMi4yOTA2MjMgMTIuMTUxNzU0IDEyLjE1MTc1NCAwIDAgMC0xLjE0NTMxMiAxMC44NTc1NTIgMjM3LjY2MzU2NSAyMzcuNjYzNTY1IDAgMCAxIDAgMTcwLjk0OTE3NyAxMi4xNTE3NTQgMTIuMTUxNzU0IDAgMCAwIDEuMTQ1MzEyIDEwLjkwMzM2NHpNNTk2Ljg1MDM5NCAzOTcuNzg5NTQ5YTExLjY4MjE3NiAxMS42ODIxNzYgMCAwIDAgMjEuNDA1ODY5LTQuMzA2MzcxIDIxMi42Mzg1MTEgMjEyLjYzODUxMSAwIDAgMCAwLTY5LjQxNzMyMyAxMS42ODIxNzYgMTEuNjgyMTc2IDAgMSAwLTIzLjAyMDc1OCAzLjk1MTMyNSAxODguMTQwMzAxIDE4OC4xNDAzMDEgMCAwIDEgMCA2MS41MTQ2NzQgMTEuNzUwODk1IDExLjc1MDg5NSAwIDAgMCAxLjYxNDg4OSA4LjI1NzY5NXpNMzYwLjQ2OTU3OCA0OTIuNDcyNDQxYTI4NC42NTU2OTEgMjg0LjY1NTY5MSAwIDAgMSAwLjA4MDE3MS0yNjcuMjQ2OTU4IDEyLjgxNjAzNCAxMi44MTYwMzQgMCAwIDAtMC40OTI0ODMtMTIuODg0NzUzIDEyLjkwNzY1OSAxMi45MDc2NTkgMCAwIDAtMjIuMjg3NzYgMC43Nzg4MTIgMzEwLjU5Njk5NCAzMTAuNTk2OTk0IDAgMCAwLTAuMDkxNjI1IDI5MS40NDczODcgMTIuODk2MjA2IDEyLjg5NjIwNiAwIDAgMCAyMi4yODc3NiAwLjc3ODgxMiAxMi44Mzg5NDEgMTIuODM4OTQxIDAgMCAwIDAuNTAzOTM3LTEyLjg3MzN6Ii8+PHBhdGggZmlsbD0iI0ZGRkZGRiIgZD0iTTM2OS4zMzQyODggNDUyLjkzNjI5MmExMi4zMDA2NDQgMTIuMzAwNjQ0IDAgMCAwIDIxLjg5ODM1MyAyLjIzMzM1NyAxMi4xNTE3NTQgMTIuMTUxNzU0IDAgMCAwIDEuMTQ1MzEyLTEwLjg1NzU1MiAyMzcuNjYzNTY1IDIzNy42NjM1NjUgMCAwIDEgMC0xNzAuOTQ5MTc2IDEyLjEyODg0OCAxMi4xMjg4NDggMCAwIDAtMS4xNDUzMTItMTAuODQ2MDk5IDEyLjMwMDY0NCAxMi4zMDA2NDQgMCAwIDAtMjEuODk4MzUzIDIuMjMzMzU3IDI2Mi4yNzYzMDYgMjYyLjI3NjMwNiAwIDAgMCAwIDE4OC4xODYxMTN6TTQyNy4xNDk2MDYgMzk3Ljc4OTU0OWExMS43NTA4OTUgMTEuNzUwODk1IDAgMCAwIDEuNjE0ODg5LTguMjU3Njk1IDE4OC45NzYzNzggMTg4Ljk3NjM3OCAwIDAgMSAwLTYxLjUxNDY3NCAxMS42ODIxNzYgMTEuNjgyMTc2IDAgMSAwLTIzLjAyMDc1OC0zLjk1MTMyNSAyMTIuNjM4NTExIDIxMi42Mzg1MTEgMCAwIDAgMCA2OS40MTczMjMgMTEuNjgyMTc2IDExLjY4MjE3NiAwIDAgMCAyMS40MDU4NjkgNC4zMDYzNzF6TTY0My41Njc2NDUgNjIyLjE2NzUwMmExNi43MjE1NDYgMTYuNzIxNTQ2IDAgMCAwLTguMDE3MTgtMzEuNDE1ODkxaC01LjA1MDgyM0w1OTcuOTcyNzk5IDUxMi4zMzIxNGExNi43MjE1NDYgMTYuNzIxNTQ2IDAgMCAwLTguMjY5MTQ4LTMxLjI0NDA5NGgtNC42OTU3NzdMNTI5LjM2ODY0NyAzNDYuOTM3NzI0YTE3LjQ2NTk5OSAxNy40NjU5OTkgMCAwIDAtMTAuNDU2NjkzLTEyLjg4NDc1MyAxOC41ODg0MDQgMTguNTg4NDA0IDAgMCAwLTEzLjgwMTAwMiAwIDE3LjQ2NTk5OSAxNy40NjU5OTkgMCAwIDAtMTAuNDY4MTQ2IDEyLjg4NDc1M2wtNTUuNjg1MDM5IDEzNC4xODQ2ODFoLTQuNjg0MzI0YTE2LjcyMTU0NiAxNi43MjE1NDYgMCAwIDAtOC4yODA2MDEgMzEuMjQ0MDk1bC0zMi41MjY4NDMgNzguNDE5NDdoLTUuMDM5MzcxYTE2LjcyMTU0NiAxNi43MjE1NDYgMCAwIDAtOC4wMTcxNzkgMzEuNDE1ODkxbC0xOC4wOTU5MiA0My42MzYzNjRhMTcuNDg4OTA1IDE3LjQ4ODkwNSAwIDAgMCAzMi4yOTc3ODEgMTMuNDAwMTQzbDIyLjgyNjA1Ni01NC45NzQ5NDZoMTg5LjEwMjM2MmwyMi44MjYwNTYgNTQuOTc0OTQ2YTE3LjQ3NzQ1MiAxNy40Nzc0NTIgMCAwIDAgMjIuODQ4OTYyIDkuNDQ4ODE5IDE3LjQ4ODkwNSAxNy40ODg5MDUgMCAwIDAgOS40NDg4MTktMjIuOTA2MjI4ek01MTIuMDQwMDg2IDM5Ni4zMjM1NWwzNS4xODM5NjYgODQuNzUzMDQzaC03MC40MDIyOTF6IG0tNDkuMDg4MDQ2IDExOC4yNDE5NDdoNDQuNTA2OGwtNjYuNTY1NDk3IDUzLjA2MjI3N3ogbTIuNTc2OTUxIDc2LjIyMDQ3M2w5Mi42MjEzMzEtNzMuODE1MzE5YTE2LjcyMTU0NiAxNi43MjE1NDYgMCAwIDAgMi40Mzk1MTMtMi40MDUxNTRoMC40NTgxMjVsMzEuNjIyMDQ3IDc2LjIyMDQ3M3oiLz48L3N2Zz4=;" vertex="1" parent="1">
          <mxGeometry x="1100" y="1190" width="100" height="100" as="geometry" />
        </mxCell>
        <mxCell id="XepEtMXgXSmg0DPBAmvP-20" value="" style="shape=image;imageAspect=0;aspect=fixed;verticalLabelPosition=bottom;verticalAlign=top;image=data:image/svg+xml,PHN2ZyB4bWxuczp4bGluaz0iaHR0cDovL3d3dy53My5vcmcvMTk5OS94bGluayIgeG1sbnM9Imh0dHA6Ly93d3cudzMub3JnLzIwMDAvc3ZnIiBoZWlnaHQ9IjIwMCIgd2lkdGg9IjIwMCIgdmVyc2lvbj0iMS4xIiB2aWV3Qm94PSIwIDAgMTAyNCAxMDI0IiBjbGFzcz0iaWNvbiI+PHBhdGggZmlsbD0iIzI5NkZEQiIgZD0iTTUxMi4wNDAwODYgMEM3NTkuOTc3MDk0IDAgOTYwLjkyMTk3NiAyMDAuOTY3Nzg4IDk2MC45MjE5NzYgNDQ4Ljg4MTg5YzAgMjA1Ljk5NTcwNS0xMzguNzQzMDIxIDM3OS41NzkwOTgtMzI3LjkwMjY0OSA0MzIuMzg5NDA2LTM4LjUxNjgyMiAxMC43MzE1NjgtNzkuMDcyMjk4IDE0Mi43Mjg3MDQtMTIwLjk3OTI0MSAxNDIuNzI4NzA0cy04Mi40NjI0MTktMTMxLjk5NzEzNy0xMjAuOTU2MzM1LTE0Mi43Mjg3MDRDMjAxLjkyNDEyMyA4MjguNTI5NzA3IDYzLjA3ODAyNCA2NTQuOTExOTU0IDYzLjA3ODAyNCA0NDguODgxODkgNjMuMDc4MDI0IDIwMC45Njc3ODggMjY0LjA1NzI2NiAwIDUxMi4wNDAwODYgMHoiLz48cGF0aCBmaWxsPSIjRkZGRkZGIiBkPSJNNjg2LjIzMDQ5NCAyMTMuMTE5NTQyYTEyLjg5ODQ5NyAxMi44OTg0OTcgMCAwIDAtMjIuNzgwMjQzIDEyLjEwNTk0MSAyODQuNjU1NjkxIDI4NC42NTU2OTEgMCAwIDEgMC4wODAxNzEgMjY3LjI0Njk1OCAxMi44MTYwMzQgMTIuODE2MDM0IDAgMCAwIDAuNTAzOTM3IDEyLjg3MzMgMTIuODk2MjA2IDEyLjg5NjIwNiAwIDAgMCAyMi4yODc3Ni0wLjc3ODgxMiAzMTAuNTk2OTk0IDMxMC41OTY5OTQgMCAwIDAtMC4wOTE2MjUtMjkxLjQ0NzM4N3oiLz48cGF0aCBmaWxsPSIjRkZGRkZGIiBkPSJNNjMyLjc2NzM1OSA0NTUuMTY5NjQ5YTEyLjMwMDY0NCAxMi4zMDA2NDQgMCAwIDAgMjEuODk4MzUzLTIuMjMzMzU3IDI2Mi4yNzYzMDYgMjYyLjI3NjMwNiAwIDAgMCAwLTE4OC4xODYxMTMgMTIuMzAwNjQ0IDEyLjMwMDY0NCAwIDAgMC0yMS44OTgzNTMtMi4yOTA2MjMgMTIuMTUxNzU0IDEyLjE1MTc1NCAwIDAgMC0xLjE0NTMxMiAxMC44NTc1NTIgMjM3LjY2MzU2NSAyMzcuNjYzNTY1IDAgMCAxIDAgMTcwLjk0OTE3NyAxMi4xNTE3NTQgMTIuMTUxNzU0IDAgMCAwIDEuMTQ1MzEyIDEwLjkwMzM2NHpNNTk2Ljg1MDM5NCAzOTcuNzg5NTQ5YTExLjY4MjE3NiAxMS42ODIxNzYgMCAwIDAgMjEuNDA1ODY5LTQuMzA2MzcxIDIxMi42Mzg1MTEgMjEyLjYzODUxMSAwIDAgMCAwLTY5LjQxNzMyMyAxMS42ODIxNzYgMTEuNjgyMTc2IDAgMSAwLTIzLjAyMDc1OCAzLjk1MTMyNSAxODguMTQwMzAxIDE4OC4xNDAzMDEgMCAwIDEgMCA2MS41MTQ2NzQgMTEuNzUwODk1IDExLjc1MDg5NSAwIDAgMCAxLjYxNDg4OSA4LjI1NzY5NXpNMzYwLjQ2OTU3OCA0OTIuNDcyNDQxYTI4NC42NTU2OTEgMjg0LjY1NTY5MSAwIDAgMSAwLjA4MDE3MS0yNjcuMjQ2OTU4IDEyLjgxNjAzNCAxMi44MTYwMzQgMCAwIDAtMC40OTI0ODMtMTIuODg0NzUzIDEyLjkwNzY1OSAxMi45MDc2NTkgMCAwIDAtMjIuMjg3NzYgMC43Nzg4MTIgMzEwLjU5Njk5NCAzMTAuNTk2OTk0IDAgMCAwLTAuMDkxNjI1IDI5MS40NDczODcgMTIuODk2MjA2IDEyLjg5NjIwNiAwIDAgMCAyMi4yODc3NiAwLjc3ODgxMiAxMi44Mzg5NDEgMTIuODM4OTQxIDAgMCAwIDAuNTAzOTM3LTEyLjg3MzN6Ii8+PHBhdGggZmlsbD0iI0ZGRkZGRiIgZD0iTTM2OS4zMzQyODggNDUyLjkzNjI5MmExMi4zMDA2NDQgMTIuMzAwNjQ0IDAgMCAwIDIxLjg5ODM1MyAyLjIzMzM1NyAxMi4xNTE3NTQgMTIuMTUxNzU0IDAgMCAwIDEuMTQ1MzEyLTEwLjg1NzU1MiAyMzcuNjYzNTY1IDIzNy42NjM1NjUgMCAwIDEgMC0xNzAuOTQ5MTc2IDEyLjEyODg0OCAxMi4xMjg4NDggMCAwIDAtMS4xNDUzMTItMTAuODQ2MDk5IDEyLjMwMDY0NCAxMi4zMDA2NDQgMCAwIDAtMjEuODk4MzUzIDIuMjMzMzU3IDI2Mi4yNzYzMDYgMjYyLjI3NjMwNiAwIDAgMCAwIDE4OC4xODYxMTN6TTQyNy4xNDk2MDYgMzk3Ljc4OTU0OWExMS43NTA4OTUgMTEuNzUwODk1IDAgMCAwIDEuNjE0ODg5LTguMjU3Njk1IDE4OC45NzYzNzggMTg4Ljk3NjM3OCAwIDAgMSAwLTYxLjUxNDY3NCAxMS42ODIxNzYgMTEuNjgyMTc2IDAgMSAwLTIzLjAyMDc1OC0zLjk1MTMyNSAyMTIuNjM4NTExIDIxMi42Mzg1MTEgMCAwIDAgMCA2OS40MTczMjMgMTEuNjgyMTc2IDExLjY4MjE3NiAwIDAgMCAyMS40MDU4NjkgNC4zMDYzNzF6TTY0My41Njc2NDUgNjIyLjE2NzUwMmExNi43MjE1NDYgMTYuNzIxNTQ2IDAgMCAwLTguMDE3MTgtMzEuNDE1ODkxaC01LjA1MDgyM0w1OTcuOTcyNzk5IDUxMi4zMzIxNGExNi43MjE1NDYgMTYuNzIxNTQ2IDAgMCAwLTguMjY5MTQ4LTMxLjI0NDA5NGgtNC42OTU3NzdMNTI5LjM2ODY0NyAzNDYuOTM3NzI0YTE3LjQ2NTk5OSAxNy40NjU5OTkgMCAwIDAtMTAuNDU2NjkzLTEyLjg4NDc1MyAxOC41ODg0MDQgMTguNTg4NDA0IDAgMCAwLTEzLjgwMTAwMiAwIDE3LjQ2NTk5OSAxNy40NjU5OTkgMCAwIDAtMTAuNDY4MTQ2IDEyLjg4NDc1M2wtNTUuNjg1MDM5IDEzNC4xODQ2ODFoLTQuNjg0MzI0YTE2LjcyMTU0NiAxNi43MjE1NDYgMCAwIDAtOC4yODA2MDEgMzEuMjQ0MDk1bC0zMi41MjY4NDMgNzguNDE5NDdoLTUuMDM5MzcxYTE2LjcyMTU0NiAxNi43MjE1NDYgMCAwIDAtOC4wMTcxNzkgMzEuNDE1ODkxbC0xOC4wOTU5MiA0My42MzYzNjRhMTcuNDg4OTA1IDE3LjQ4ODkwNSAwIDAgMCAzMi4yOTc3ODEgMTMuNDAwMTQzbDIyLjgyNjA1Ni01NC45NzQ5NDZoMTg5LjEwMjM2MmwyMi44MjYwNTYgNTQuOTc0OTQ2YTE3LjQ3NzQ1MiAxNy40Nzc0NTIgMCAwIDAgMjIuODQ4OTYyIDkuNDQ4ODE5IDE3LjQ4ODkwNSAxNy40ODg5MDUgMCAwIDAgOS40NDg4MTktMjIuOTA2MjI4ek01MTIuMDQwMDg2IDM5Ni4zMjM1NWwzNS4xODM5NjYgODQuNzUzMDQzaC03MC40MDIyOTF6IG0tNDkuMDg4MDQ2IDExOC4yNDE5NDdoNDQuNTA2OGwtNjYuNTY1NDk3IDUzLjA2MjI3N3ogbTIuNTc2OTUxIDc2LjIyMDQ3M2w5Mi42MjEzMzEtNzMuODE1MzE5YTE2LjcyMTU0NiAxNi43MjE1NDYgMCAwIDAgMi40Mzk1MTMtMi40MDUxNTRoMC40NTgxMjVsMzEuNjIyMDQ3IDc2LjIyMDQ3M3oiLz48L3N2Zz4=;" vertex="1" parent="1">
          <mxGeometry x="903.52" y="1060" width="100" height="100" as="geometry" />
        </mxCell>
        <mxCell id="XepEtMXgXSmg0DPBAmvP-21" value="" style="shape=image;imageAspect=0;aspect=fixed;verticalLabelPosition=bottom;verticalAlign=top;image=data:image/svg+xml,PHN2ZyB4bWxuczp4bGluaz0iaHR0cDovL3d3dy53My5vcmcvMTk5OS94bGluayIgeG1sbnM9Imh0dHA6Ly93d3cudzMub3JnLzIwMDAvc3ZnIiBoZWlnaHQ9IjIwMCIgd2lkdGg9IjIwMCIgdmVyc2lvbj0iMS4xIiB2aWV3Qm94PSIwIDAgMTAyNCAxMDI0IiBjbGFzcz0iaWNvbiI+PHBhdGggZmlsbD0iIzI5NkZEQiIgZD0iTTUxMi4wNDAwODYgMEM3NTkuOTc3MDk0IDAgOTYwLjkyMTk3NiAyMDAuOTY3Nzg4IDk2MC45MjE5NzYgNDQ4Ljg4MTg5YzAgMjA1Ljk5NTcwNS0xMzguNzQzMDIxIDM3OS41NzkwOTgtMzI3LjkwMjY0OSA0MzIuMzg5NDA2LTM4LjUxNjgyMiAxMC43MzE1NjgtNzkuMDcyMjk4IDE0Mi43Mjg3MDQtMTIwLjk3OTI0MSAxNDIuNzI4NzA0cy04Mi40NjI0MTktMTMxLjk5NzEzNy0xMjAuOTU2MzM1LTE0Mi43Mjg3MDRDMjAxLjkyNDEyMyA4MjguNTI5NzA3IDYzLjA3ODAyNCA2NTQuOTExOTU0IDYzLjA3ODAyNCA0NDguODgxODkgNjMuMDc4MDI0IDIwMC45Njc3ODggMjY0LjA1NzI2NiAwIDUxMi4wNDAwODYgMHoiLz48cGF0aCBmaWxsPSIjRkZGRkZGIiBkPSJNNjg2LjIzMDQ5NCAyMTMuMTE5NTQyYTEyLjg5ODQ5NyAxMi44OTg0OTcgMCAwIDAtMjIuNzgwMjQzIDEyLjEwNTk0MSAyODQuNjU1NjkxIDI4NC42NTU2OTEgMCAwIDEgMC4wODAxNzEgMjY3LjI0Njk1OCAxMi44MTYwMzQgMTIuODE2MDM0IDAgMCAwIDAuNTAzOTM3IDEyLjg3MzMgMTIuODk2MjA2IDEyLjg5NjIwNiAwIDAgMCAyMi4yODc3Ni0wLjc3ODgxMiAzMTAuNTk2OTk0IDMxMC41OTY5OTQgMCAwIDAtMC4wOTE2MjUtMjkxLjQ0NzM4N3oiLz48cGF0aCBmaWxsPSIjRkZGRkZGIiBkPSJNNjMyLjc2NzM1OSA0NTUuMTY5NjQ5YTEyLjMwMDY0NCAxMi4zMDA2NDQgMCAwIDAgMjEuODk4MzUzLTIuMjMzMzU3IDI2Mi4yNzYzMDYgMjYyLjI3NjMwNiAwIDAgMCAwLTE4OC4xODYxMTMgMTIuMzAwNjQ0IDEyLjMwMDY0NCAwIDAgMC0yMS44OTgzNTMtMi4yOTA2MjMgMTIuMTUxNzU0IDEyLjE1MTc1NCAwIDAgMC0xLjE0NTMxMiAxMC44NTc1NTIgMjM3LjY2MzU2NSAyMzcuNjYzNTY1IDAgMCAxIDAgMTcwLjk0OTE3NyAxMi4xNTE3NTQgMTIuMTUxNzU0IDAgMCAwIDEuMTQ1MzEyIDEwLjkwMzM2NHpNNTk2Ljg1MDM5NCAzOTcuNzg5NTQ5YTExLjY4MjE3NiAxMS42ODIxNzYgMCAwIDAgMjEuNDA1ODY5LTQuMzA2MzcxIDIxMi42Mzg1MTEgMjEyLjYzODUxMSAwIDAgMCAwLTY5LjQxNzMyMyAxMS42ODIxNzYgMTEuNjgyMTc2IDAgMSAwLTIzLjAyMDc1OCAzLjk1MTMyNSAxODguMTQwMzAxIDE4OC4xNDAzMDEgMCAwIDEgMCA2MS41MTQ2NzQgMTEuNzUwODk1IDExLjc1MDg5NSAwIDAgMCAxLjYxNDg4OSA4LjI1NzY5NXpNMzYwLjQ2OTU3OCA0OTIuNDcyNDQxYTI4NC42NTU2OTEgMjg0LjY1NTY5MSAwIDAgMSAwLjA4MDE3MS0yNjcuMjQ2OTU4IDEyLjgxNjAzNCAxMi44MTYwMzQgMCAwIDAtMC40OTI0ODMtMTIuODg0NzUzIDEyLjkwNzY1OSAxMi45MDc2NTkgMCAwIDAtMjIuMjg3NzYgMC43Nzg4MTIgMzEwLjU5Njk5NCAzMTAuNTk2OTk0IDAgMCAwLTAuMDkxNjI1IDI5MS40NDczODcgMTIuODk2MjA2IDEyLjg5NjIwNiAwIDAgMCAyMi4yODc3NiAwLjc3ODgxMiAxMi44Mzg5NDEgMTIuODM4OTQxIDAgMCAwIDAuNTAzOTM3LTEyLjg3MzN6Ii8+PHBhdGggZmlsbD0iI0ZGRkZGRiIgZD0iTTM2OS4zMzQyODggNDUyLjkzNjI5MmExMi4zMDA2NDQgMTIuMzAwNjQ0IDAgMCAwIDIxLjg5ODM1MyAyLjIzMzM1NyAxMi4xNTE3NTQgMTIuMTUxNzU0IDAgMCAwIDEuMTQ1MzEyLTEwLjg1NzU1MiAyMzcuNjYzNTY1IDIzNy42NjM1NjUgMCAwIDEgMC0xNzAuOTQ5MTc2IDEyLjEyODg0OCAxMi4xMjg4NDggMCAwIDAtMS4xNDUzMTItMTAuODQ2MDk5IDEyLjMwMDY0NCAxMi4zMDA2NDQgMCAwIDAtMjEuODk4MzUzIDIuMjMzMzU3IDI2Mi4yNzYzMDYgMjYyLjI3NjMwNiAwIDAgMCAwIDE4OC4xODYxMTN6TTQyNy4xNDk2MDYgMzk3Ljc4OTU0OWExMS43NTA4OTUgMTEuNzUwODk1IDAgMCAwIDEuNjE0ODg5LTguMjU3Njk1IDE4OC45NzYzNzggMTg4Ljk3NjM3OCAwIDAgMSAwLTYxLjUxNDY3NCAxMS42ODIxNzYgMTEuNjgyMTc2IDAgMSAwLTIzLjAyMDc1OC0zLjk1MTMyNSAyMTIuNjM4NTExIDIxMi42Mzg1MTEgMCAwIDAgMCA2OS40MTczMjMgMTEuNjgyMTc2IDExLjY4MjE3NiAwIDAgMCAyMS40MDU4NjkgNC4zMDYzNzF6TTY0My41Njc2NDUgNjIyLjE2NzUwMmExNi43MjE1NDYgMTYuNzIxNTQ2IDAgMCAwLTguMDE3MTgtMzEuNDE1ODkxaC01LjA1MDgyM0w1OTcuOTcyNzk5IDUxMi4zMzIxNGExNi43MjE1NDYgMTYuNzIxNTQ2IDAgMCAwLTguMjY5MTQ4LTMxLjI0NDA5NGgtNC42OTU3NzdMNTI5LjM2ODY0NyAzNDYuOTM3NzI0YTE3LjQ2NTk5OSAxNy40NjU5OTkgMCAwIDAtMTAuNDU2NjkzLTEyLjg4NDc1MyAxOC41ODg0MDQgMTguNTg4NDA0IDAgMCAwLTEzLjgwMTAwMiAwIDE3LjQ2NTk5OSAxNy40NjU5OTkgMCAwIDAtMTAuNDY4MTQ2IDEyLjg4NDc1M2wtNTUuNjg1MDM5IDEzNC4xODQ2ODFoLTQuNjg0MzI0YTE2LjcyMTU0NiAxNi43MjE1NDYgMCAwIDAtOC4yODA2MDEgMzEuMjQ0MDk1bC0zMi41MjY4NDMgNzguNDE5NDdoLTUuMDM5MzcxYTE2LjcyMTU0NiAxNi43MjE1NDYgMCAwIDAtOC4wMTcxNzkgMzEuNDE1ODkxbC0xOC4wOTU5MiA0My42MzYzNjRhMTcuNDg4OTA1IDE3LjQ4ODkwNSAwIDAgMCAzMi4yOTc3ODEgMTMuNDAwMTQzbDIyLjgyNjA1Ni01NC45NzQ5NDZoMTg5LjEwMjM2MmwyMi44MjYwNTYgNTQuOTc0OTQ2YTE3LjQ3NzQ1MiAxNy40Nzc0NTIgMCAwIDAgMjIuODQ4OTYyIDkuNDQ4ODE5IDE3LjQ4ODkwNSAxNy40ODg5MDUgMCAwIDAgOS40NDg4MTktMjIuOTA2MjI4ek01MTIuMDQwMDg2IDM5Ni4zMjM1NWwzNS4xODM5NjYgODQuNzUzMDQzaC03MC40MDIyOTF6IG0tNDkuMDg4MDQ2IDExOC4yNDE5NDdoNDQuNTA2OGwtNjYuNTY1NDk3IDUzLjA2MjI3N3ogbTIuNTc2OTUxIDc2LjIyMDQ3M2w5Mi42MjEzMzEtNzMuODE1MzE5YTE2LjcyMTU0NiAxNi43MjE1NDYgMCAwIDAgMi40Mzk1MTMtMi40MDUxNTRoMC40NTgxMjVsMzEuNjIyMDQ3IDc2LjIyMDQ3M3oiLz48L3N2Zz4=;" vertex="1" parent="1">
          <mxGeometry x="916.76" y="1280" width="100" height="100" as="geometry" />
        </mxCell>
        <mxCell id="XepEtMXgXSmg0DPBAmvP-25" value="" style="edgeStyle=none;orthogonalLoop=1;jettySize=auto;html=1;rounded=0;dashed=1;endArrow=none;endFill=0;" edge="1" parent="1">
          <mxGeometry width="80" relative="1" as="geometry">
            <mxPoint x="560" y="1250" as="sourcePoint" />
            <mxPoint x="664" y="1315" as="targetPoint" />
            <Array as="points" />
          </mxGeometry>
        </mxCell>
        <mxCell id="XepEtMXgXSmg0DPBAmvP-26" value="" style="edgeStyle=none;orthogonalLoop=1;jettySize=auto;html=1;rounded=0;dashed=1;endArrow=none;endFill=0;" edge="1" parent="1" target="XepEtMXgXSmg0DPBAmvP-18">
          <mxGeometry width="80" relative="1" as="geometry">
            <mxPoint x="579.52" y="1176" as="sourcePoint" />
            <mxPoint x="683.52" y="1241" as="targetPoint" />
            <Array as="points" />
          </mxGeometry>
        </mxCell>
        <mxCell id="XepEtMXgXSmg0DPBAmvP-27" value="" style="orthogonalLoop=1;jettySize=auto;html=1;rounded=0;dashed=1;endArrow=none;endFill=0;" edge="1" parent="1" target="XepEtMXgXSmg0DPBAmvP-21">
          <mxGeometry width="80" relative="1" as="geometry">
            <mxPoint x="750" y="1341" as="sourcePoint" />
            <mxPoint x="854.48" y="1290" as="targetPoint" />
          </mxGeometry>
        </mxCell>
        <mxCell id="XepEtMXgXSmg0DPBAmvP-28" value="" style="edgeStyle=none;orthogonalLoop=1;jettySize=auto;html=1;rounded=0;dashed=1;endArrow=none;endFill=0;" edge="1" parent="1" target="XepEtMXgXSmg0DPBAmvP-20">
          <mxGeometry width="80" relative="1" as="geometry">
            <mxPoint x="772" y="1111" as="sourcePoint" />
            <mxPoint x="876.48" y="1060" as="targetPoint" />
            <Array as="points">
              <mxPoint x="860" y="1110" />
            </Array>
          </mxGeometry>
        </mxCell>
        <mxCell id="XepEtMXgXSmg0DPBAmvP-29" value="" style="edgeStyle=none;orthogonalLoop=1;jettySize=auto;html=1;rounded=0;dashed=1;endArrow=none;endFill=0;" edge="1" parent="1">
          <mxGeometry width="80" relative="1" as="geometry">
            <mxPoint x="1003.52" y="1321" as="sourcePoint" />
            <mxPoint x="1120" y="1260" as="targetPoint" />
            <Array as="points" />
          </mxGeometry>
        </mxCell>
        <mxCell id="XepEtMXgXSmg0DPBAmvP-30" value="" style="edgeStyle=none;orthogonalLoop=1;jettySize=auto;html=1;rounded=0;dashed=1;endArrow=none;endFill=0;entryX=0.25;entryY=0;entryDx=0;entryDy=0;" edge="1" parent="1" target="XepEtMXgXSmg0DPBAmvP-19">
          <mxGeometry width="80" relative="1" as="geometry">
            <mxPoint x="990" y="1135.5" as="sourcePoint" />
            <mxPoint x="1094.48" y="1084.5" as="targetPoint" />
            <Array as="points" />
          </mxGeometry>
        </mxCell>
        <mxCell id="XepEtMXgXSmg0DPBAmvP-31" value="" style="edgeStyle=none;orthogonalLoop=1;jettySize=auto;html=1;rounded=0;dashed=1;endArrow=none;endFill=0;jumpSize=20;targetPerimeterSpacing=7;" edge="1" parent="1">
          <mxGeometry width="80" relative="1" as="geometry">
            <mxPoint x="689" y="1390" as="sourcePoint" />
            <mxPoint x="635.52" y="1580" as="targetPoint" />
            <Array as="points" />
          </mxGeometry>
        </mxCell>
        <mxCell id="XepEtMXgXSmg0DPBAmvP-32" value="" style="edgeStyle=none;orthogonalLoop=1;jettySize=auto;html=1;rounded=0;" edge="1" parent="1" target="XepEtMXgXSmg0DPBAmvP-9">
          <mxGeometry width="80" relative="1" as="geometry">
            <mxPoint x="700" y="1690" as="sourcePoint" />
            <mxPoint x="780" y="1690" as="targetPoint" />
            <Array as="points" />
          </mxGeometry>
        </mxCell>
        <mxCell id="XepEtMXgXSmg0DPBAmvP-37" value="&lt;font style=&quot;font-size: 30px;&quot;&gt;进行探测&lt;/font&gt;" style="text;strokeColor=none;align=center;fillColor=none;html=1;verticalAlign=middle;whiteSpace=wrap;rounded=0;strokeWidth=30;" vertex="1" parent="1">
          <mxGeometry x="730" y="1590" width="140" height="30" as="geometry" />
        </mxCell>
        <mxCell id="XepEtMXgXSmg0DPBAmvP-41" style="edgeStyle=orthogonalEdgeStyle;rounded=0;orthogonalLoop=1;jettySize=auto;html=1;exitX=0.75;exitY=0;exitDx=0;exitDy=0;entryX=0.5;entryY=0;entryDx=0;entryDy=0;" edge="1" parent="1" source="XepEtMXgXSmg0DPBAmvP-37" target="XepEtMXgXSmg0DPBAmvP-37">
          <mxGeometry relative="1" as="geometry" />
        </mxCell>
        <mxCell id="XepEtMXgXSmg0DPBAmvP-43" value="&lt;font style=&quot;font-size: 30px;&quot;&gt;网络传输&lt;/font&gt;" style="text;strokeColor=none;align=center;fillColor=none;html=1;verticalAlign=middle;whiteSpace=wrap;rounded=0;strokeWidth=30;" vertex="1" parent="1">
          <mxGeometry x="553.52" y="1410" width="130" height="30" as="geometry" />
        </mxCell>
        <mxCell id="XepEtMXgXSmg0DPBAmvP-44" value="" style="shape=image;verticalLabelPosition=bottom;labelBackgroundColor=default;verticalAlign=top;aspect=fixed;imageAspect=0;image=data:image/svg+xml,PHN2ZyB4bWxuczp4bGluaz0iaHR0cDovL3d3dy53My5vcmcvMTk5OS94bGluayIgeG1sbnM9Imh0dHA6Ly93d3cudzMub3JnLzIwMDAvc3ZnIiBoZWlnaHQ9IjIwMCIgd2lkdGg9IjIwMCIgdmVyc2lvbj0iMS4xIiB2aWV3Qm94PSIwIDAgMTAyNCAxMDI0IiBjbGFzcz0iaWNvbiI+PHBhdGggZmlsbD0iIzQzNkJEOSIgZD0iTTg1Mi42OTE4NTggODcwLjg5ODI3Yy0yNS41MDc0ODEgMy42NDM5MjYtNDcuMzcxMDM2IDE0LjU3NTcwMy01OC4zMDI4MTMgMzYuNDM5MjU5aC0xODkuNDg0MTQyYy0xMC45MzE3NzctMjkuMTUxNDA3LTMyLjc5NTMzMi00Ny4zNzEwMzYtNTguMzAyODEzLTU4LjMwMjgxM3YtODMuODEwMjk0aC03Mi44Nzg1MTdWODQxLjc0Njg2NGMtMjkuMTUxNDA3IDcuMjg3ODUyLTUxLjAxNDk2MSAyOS4xNTE0MDctNTguMzAyODEzIDU4LjMwMjgxM0gyMjUuOTM2NjE4Yy0xNC41NzU3MDMtMzIuNzk1MzMyLTU0LjY1ODg4Ny00Ny4zNzEwMzYtODcuNDU0MjItMjkuMTUxNDA3LTMyLjc5NTMzMiAxNC41NzU3MDMtNDcuMzcxMDM2IDU0LjY1ODg4Ny0yOS4xNTE0MDYgODcuNDU0MjIgMTAuOTMxNzc3IDIxLjg2MzU1NSAzMi43OTUzMzIgMzYuNDM5MjU4IDU4LjMwMjgxMyAzNi40MzkyNTggMjUuNTA3NDgxIDAgNDcuMzcxMDM2LTE0LjU3NTcwMyA1OC4zMDI4MTMtMzYuNDM5MjU4aDE4OS40ODQxNDJjMjEuODYzNTU1IDUxLjAxNDk2MSA4MC4xNjYzNjggODAuMTY2MzY4IDEzMS4xODEzMyA1OC4zMDI4MTMgMjUuNTA3NDgxLTEwLjkzMTc3NyA0Ny4zNzEwMzYtMzIuNzk1MzMyIDU4LjMwMjgxMy01OC4zMDI4MTNoMTg5LjQ4NDE0MmMxNC41NzU3MDMgMzIuNzk1MzMyIDU0LjY1ODg4NyA0Ny4zNzEwMzYgODcuNDU0MjIgMjkuMTUxNDA3IDIxLjg2MzU1NS0xMC45MzE3NzcgMzYuNDM5MjU4LTMyLjc5NTMzMiAzNi40MzkyNTgtNTguMzAyODE0LTMuNjQzOTI2LTMyLjc5NTMzMi0zMi43OTUzMzItNTguMzAyODEzLTY1LjU5MDY2NS01OC4zMDI4MTN6TTMwMi40NTkwNiA1NjguNDUyNDI4Yy0xOC4yMTk2MjkgMC0zNi40MzkyNTgtMTguMjE5NjI5LTM2LjQzOTI1OC0zNi40MzkyNTlzMTQuNTc1NzAzLTM2LjQzOTI1OCAzMi43OTUzMzItMzYuNDM5MjU4aDQxNS40MDc1NDNjMTguMjE5NjI5IDAgMzYuNDM5MjU4IDE0LjU3NTcwMyAzNi40MzkyNTggMzYuNDM5MjU4IDAgMTguMjE5NjI5LTE0LjU3NTcwMyAzNi40MzkyNTgtMzYuNDM5MjU4IDM2LjQzOTI1OUgzMDIuNDU5MDZ6IG0yMDcuNzAzNzcyIDMzMS41OTcyNDljMTguMjE5NjI5IDAgMzYuNDM5MjU4IDE4LjIxOTYyOSAzNi40MzkyNTggMzYuNDM5MjU4cy0xOC4yMTk2MjkgMzYuNDM5MjU4LTM2LjQzOTI1OCAzNi40MzkyNTgtMzYuNDM5MjU4LTE0LjU3NTcwMy0zNi40MzkyNTktMzYuNDM5MjU4YzAtMTguMjE5NjI5IDE0LjU3NTcwMy0zNi40MzkyNTggMzIuNzk1MzMzLTM2LjQzOTI1OGgzLjY0MzkyNnoiLz48cGF0aCBmaWxsPSIjNDM2QkQ5IiBkPSJNNTQ2LjYwMjA5IDc2MS41ODA0OTZWNjIzLjExMTMxNWgxNjcuNjIwNTg3YzU4LjMwMjgxMyAwIDEwMi4wMjk5MjMtNDcuMzcxMDM2IDEwMi4wMjk5MjMtMTA1LjY3Mzg0OSAwLTU0LjY1ODg4Ny00Ny4zNzEwMzYtMTAyLjAyOTkyMy0xMDIuMDI5OTIzLTEwMi4wMjk5MjNIMzAyLjQ1OTA2Yy01OC4zMDI4MTMgMC0xMDIuMDI5OTIzIDQ3LjM3MTAzNi0xMDIuMDI5OTIzIDEwNS42NzM4NDkgMCA1NC42NTg4ODcgNDcuMzcxMDM2IDEwMi4wMjk5MjMgMTAyLjAyOTkyMyAxMDIuMDI5OTIzaDE2Ny42MjA1ODh2MTM4LjQ2OTE4MWg3Ni41MjI0NDJ6TTUyMS4wOTQ2MDkgMy42NDM5MjZjMTU2LjY4ODgxIDMuNjQzOTI2IDI4NC4yMjYyMTQgMTIzLjg5MzQ3OCAyOTUuMTU3OTkxIDI3Ni45MzgzNjJ2My42NDM5MjZjMTE2LjYwNTYyNiAxNC41NzU3MDMgMjA0LjA1OTg0NiAxMTYuNjA1NjI2IDIwNC4wNTk4NDYgMjMzLjIxMTI1MnYzLjY0MzkyNmMzLjY0MzkyNiAxMzEuMTgxMzI5LTEwMi4wMjk5MjMgMjM2Ljg1NTE3OC0yMjkuNTY3MzI3IDI0MC40OTkxMDRIMjMzLjIyNDQ2OWMtMTMxLjE4MTMyOS0zLjY0MzkyNi0yMzMuMjExMjUyLTEwOS4zMTc3NzUtMjMzLjIxMTI1Mi0yNDAuNDk5MTA0IDAtMTE2LjYwNTYyNiA4My44MTAyOTQtMjE4LjYzNTU0OSAxOTYuNzcxOTk0LTIzNi44NTUxNzhoMy42NDM5MjZjMTAuOTMxNzc3LTE1Ni42ODg4MSAxMzQuODI1MjU1LTI3Ni45MzgzNjIgMjkxLjUxNDA2NS0yODQuMjI2MjE0bDI5LjE1MTQwNyAzLjY0MzkyNnoiLz48L3N2Zz4=;" vertex="1" parent="1">
          <mxGeometry x="518.02" y="370" width="131" height="131" as="geometry" />
        </mxCell>
        <mxCell id="XepEtMXgXSmg0DPBAmvP-45" value="&lt;font style=&quot;font-size: 30px;&quot;&gt;物联网APP&lt;/font&gt;" style="text;strokeColor=none;align=center;fillColor=none;html=1;verticalAlign=middle;whiteSpace=wrap;rounded=0;" vertex="1" parent="1">
          <mxGeometry x="487.53" y="580" width="191.98" height="120" as="geometry" />
        </mxCell>
        <mxCell id="XepEtMXgXSmg0DPBAmvP-46" value="" style="shape=image;verticalLabelPosition=bottom;labelBackgroundColor=default;verticalAlign=top;aspect=fixed;imageAspect=0;image=data:image/svg+xml,PHN2ZyB4bWxuczp4bGluaz0iaHR0cDovL3d3dy53My5vcmcvMTk5OS94bGluayIgeG1sbnM9Imh0dHA6Ly93d3cudzMub3JnLzIwMDAvc3ZnIiBoZWlnaHQ9IjIwMCIgd2lkdGg9IjIwMCIgdmVyc2lvbj0iMS4xIiB2aWV3Qm94PSIwIDAgMTAyNCAxMDI0IiBjbGFzcz0iaWNvbiI+PHBhdGggZmlsbD0iIzAwMDAwMCIgZD0iTTQxNi41MDEzNDMgOTUwLjM5NDk1NGgtMTI4LjE4NDE5MWMtNTkuODQyNSAwLTExNi4yMjM4ODQtMjYuNjg1NDEzLTE1OC41OTY5NjItNzQuOTU2NzI1LTQyLjM1MjU5OC00OC4yMzAzNTItNjUuNjU4ODE0LTExMi41NTc5NjctNjUuNjU4ODE0LTE4MC44MzgyMiAwLTY4LjMwMDczMiAyMy4zMDYyMTctMTMyLjU0NjQyNyA2NS42NTg4MTQtMTgwLjg3OTE3OSA0Mi4zOTM1NTgtNDguMjUwODMyIDk4Ljc1NDQ2MS03NC44NzQ4MDUgMTU4LjU5Njk2Mi03NC44NzQ4MDUgOC43NDQ5NTEtMC4xMDI0IDE3LjAxODg2My0zLjk5MzU5NiAyMi42NTA4NTctMTAuNjkwNTQ5IDYuMTQzOTk0LTcuMjA4OTUzIDkuNDgyMjMxLTE2LjM4Mzk4NCA5LjQyMDc5MS0yNS44NDU3MzR2LTAuNDUwNTZjMC04Ny44MTgxNTIgMzAuMDAzMTctMTcwLjQzNDM5IDg0LjQ3OTkxNS0yMzIuNDQ3NzY3IDU0LjQ3Njc0Ni02Mi4wNzQ4MTggMTI2LjgzMjUxMy05Ni4zMTczNDQgMjAzLjgzNzIzNi05Ni4zMTczNDQgNDYuMjg0NzU0IDAgOTAuNTAxMDI5IDEyLjAyMTc0OCAxMzEuMzE3NjI5IDM1Ljk2Mjg0NGEzMDMuMzQ5NDU3IDMwMy4zNDk0NTcgMCAwIDEgOTkuODM5OSA5Ni4yNTU5MDRjMTAuNTY3NjY5IDE2LjE3OTE4NCAzMC42NTg1MjkgMTkuNTc4ODYgNDQuODEwMTk1IDcuNDk1NjcyIDE0LjIxMzEwNi0xMi4wODMxODggMTcuMTQxNzQzLTM1LjAyMDc2NSA2LjU5NDU1NC01MS4xOTk5NDlhMzcyLjQwNzk0OCAzNzIuNDA3OTQ4IDAgMCAwLTEyMS45MTczMTgtMTE3LjYzNzAwMkEzMTkuOTk5NjggMzE5Ljk5OTY4IDAgMCAwIDYwOC43MDU5NTEgMC4wMDEwMjRjLTkzLjQ1MDE0Ny0wLjI0NTc2LTE4My4wOTEwMTcgNDIuMTA2ODM4LTI0OS4xNTk0MzEgMTE3LjY5ODQ0Mi01OC43NTcwNjEgNjYuODg3NjEzLTk0LjkwNDIyNSAxNTUuNDQzMDQ1LTEwMS45NDkzMzggMjQ5LjkxNzE5LTY1LjQ3NDQ5NSA3Ljg2NDMxMi0xMjYuNTg2NzUzIDQxLjIyNjE5OS0xNzMuMTE3MjY2IDk0LjQxMjcwNkMzMC4wMDMxNyA1MjQuMTQ1MTQgMCA2MDYuNzYxMzc3IDAgNjk0LjU3OTUyOWMwIDg3LjczNjIzMiAzMC4wMjM2NSAxNzAuMzUyNDcgODQuNDc5OTE2IDIzMi40NDc3NjggNTMuOTQ0MjY2IDYxLjg5MDQ5OCAxMjcuMzY0OTkzIDk2LjU2MzEwMyAyMDMuODM3MjM2IDk2LjMxNzM0NGgxMjguMTIyNzUyYTMxLjEwOTA4OSAzMS4xMDkwODkgMCAwIDAgMjkuNDUwMjEtMTcuNTMwODYzYzYuMTY0NDc0LTExLjg3ODM4OCA2LjE2NDQ3NC0yNi4wMDk1NzQgMC0zNy44ODc5NjJhMzEuMTA5MDg5IDMxLjEwOTA4OSAwIDAgMC0yOS4zODg3NzEtMTcuNjEyNzgydjAuMDYxNDR6Ii8+PHBhdGggZmlsbD0iIzAwMDAwMCIgZD0iTTQ0Ny45OTk1NTIgMzgzLjc5NTg0YTYzLjU2OTg1NiA2My41Njk4NTYgMCAwIDEgNjQuMTg0MjU2LTYzLjc5NTEzNmgzMTkuNjEwNTZjMzUuNDcxMzI1IDAgNjQuMjA0NzM2IDI4Ljk5OTY1MSA2NC4yMDQ3MzYgNjMuODE1NjE2djM4NC4zNjgyNTZhNjMuNTY5ODU2IDYzLjU2OTg1NiAwIDAgMS02NC4yMDQ3MzYgNjMuODE1NjE2SDUxMi4yMDQyODhhNjQuMjQ1Njk2IDY0LjI0NTY5NiAwIDAgMS02NC4xODQyNTYtNjMuODE1NjE2VjM4My44MTYzMnogbTYzLjk5OTkzNiAwLjIwNDhWNzY4LjAwMDI1NmgzMTkuOTk5NjhWMzg0LjAwMDY0SDUxMS45OTk0ODh6Ii8+PHBhdGggZmlsbD0iIzAwMDAwMCIgZD0iTTc2Ny45Mzc3OTIgNTc2LjAwMDQ0OGgxOTIuMjQ1NTY4YzM1LjIwNTA4NSAwIDYzLjgxNTYxNiAyOC44NzY3NzEgNjMuODE1NjE2IDYzLjM2NTA1N1Y4OTYuNjE0NTI3YzAgMzQuOTU5MzI1LTI4Ljk5OTY1MSA2My4zNjUwNTctNjMuODE1NjE2IDYzLjM2NTA1N0g1NzUuODE1MTA0QTYzLjkzODQ5NiA2My45Mzg0OTYgMCAwIDEgNTExLjk5OTQ4OCA4OTYuNjM1MDA3di0xMjguOTYyNDMxIDEyOC4zMjc1NTJoNDQ3Ljk5OTU1MlY1NzYuMDAwNDQ4aC0xOTIuMDYxMjQ4eiBtLTE5MS45MzgzNjgtMTI3Ljk5OTg3Mkg3NjcuOTk5MjMyVjUxMi4wMDA1MTJoLTE5MS45OTk4MDh2LTYzLjk5OTkzNnoiLz48cGF0aCBmaWxsPSIjMDAwMDAwIiBkPSJNNTc1Ljk5OTQyNCA1NzYuMDAwNDQ4SDc2Ny45OTkyMzJ2NjMuOTk5OTM2aC0xOTEuOTk5ODA4di02My45OTk5MzZ6Ii8+PC9zdmc+;" vertex="1" parent="1">
          <mxGeometry x="870" y="401.76" width="116.48" height="116.48" as="geometry" />
        </mxCell>
        <mxCell id="XepEtMXgXSmg0DPBAmvP-47" value="&lt;span style=&quot;font-size: 30px;&quot;&gt;云备源&lt;/span&gt;" style="text;strokeColor=none;align=center;fillColor=none;html=1;verticalAlign=middle;whiteSpace=wrap;rounded=0;" vertex="1" parent="1">
          <mxGeometry x="794.5" y="580" width="191.98" height="120" as="geometry" />
        </mxCell>
      </root>
    </mxGraphModel>
  </diagram>
</mxfile>
